<svg xmlns="http://www.w3.org/2000/svg" width="1800" height="1374"><path fill="#2D74AA" d="M556.313 389.813c9.785 5.161 17.549 11.974 23.687 21.187 8.045 13.117 12.673 26.104 14.508 41.453L595 455l2 2 .883-2.238C602.717 442.798 607.927 433.255 617 424l2.086-2.508c2.232-2.448 3.918-4.062 6.914-5.492 3.74.155 6.893.886 10.473 1.965 14.767 4.334 32.803 3.2 47.726.035 3.73-.981 7.173-2.226 10.739-3.687 4.5-1.817 8.204-3.126 13.082-2.88 5.06.962 9.9 2.637 14.777 4.278 6.718 2.24 13.16 3.48 20.203 4.289l.08 2.55c.45 9.166 2.205 17.218 4.857 26.012 5.522 18.56 8.904 38.45 5.41 57.81-3.151 12.132-9.865 22.104-18.554 30.948-10.474 10.049-24.728 17.031-38.732 20.728C688.003 560 688.003 560 685 560v3l1.997.807c38.107 15.462 38.107 15.462 51.71 32.416 7.096 9.754 11.834 20.726 13.23 32.777.867 19.04-6.132 37.19-12.803 54.669-3.564 9.372-6.35 18.43-8.134 28.331l-3.143.58q-5.894 1.089-11.786 2.191-2.527.47-5.056.937c-10.011 1.844-19.9 3.897-29.749 6.476-4.116 1.029-8.034 1.645-12.266 1.816l-3.16.156c-14.387.383-27.733-3.044-40.559-9.531C614.14 708.297 606.59 699.828 600 689c-6.789-12.489-9.649-26.125-12-40h-2l-1.32 3.148c-6.032 14.208-12.432 26.548-24.992 36.102-10.485 7.274-22.04 11.291-34.688 12.75-3.314.184-6.62.23-9.937.25-1.254.03-1.254.03-2.534.063-15.067.09-28.923-4.468-42.966-9.375q-3.55-1.23-7.104-2.446a589 589 0 0 1-4.361-1.513c-4.393-1.514-8.762-2.63-13.32-3.54L443 684l-1-1c-.28-1.992-.555-3.985-.8-5.982-1.48-12.01-4.011-23.678-6.775-35.442l-.902-3.85-.815-3.419c-2.744-12.81-3.8-28.747.136-41.393C437.58 580.976 443.084 570.436 453 562c9.503-7.49 19.945-12.02 31.559-15.305l2.356-.669q2.301-.642 4.614-1.24c1.85-.504 3.666-1.135 5.471-1.786l1-3-2.098-.445c-16.242-3.724-29.492-10.066-42.214-20.93-8.916-8.388-13.982-18.092-17.688-29.625-4.416-18.553-1.127-35.981 4.18-53.891 2.119-7 4.428-13.922 6.818-20.834 2.352-6.973 3.783-14.023 5.002-21.275l2.742-.41a454 454 0 0 0 23.426-4.277l2.2-.462q5.484-1.151 10.958-2.338c7.234-1.546 14.44-2.853 21.787-3.732l2.078-.25c14.953-1.653 27.719 2 41.121 8.281M593 463c-2.123 1.814-2.123 1.814-2.67 4.135l-.584 2.627-.65 2.892-.659 3.034-.67 2.974c-3.733 16.816-3.718 32.592.233 49.338.622 1.684 1.27 3.36 2 5h3q.944-3.185 1.875-6.375l1.055-3.586c2.38-8.725 3.428-16.922 3.383-25.976l-.007-3.278c-.034-15.794-.034-15.794-4.306-30.785zm-11 75c-2.756 2.719-4.76 5.28-6 9-.432 4.365-.316 8.088 1.125 12.25 2.314 3.393 4.554 5.328 7.875 7.75 4.41 1.47 8.407 1.841 13 1 3.836-2.308 6.867-5.134 9.195-8.969 1.451-3.662 1.313-7.165.805-11.031-.926-2.994-2.135-5.48-4-8-3.01-2.396-5.366-3.789-9-5-5.258-.397-8.561.105-13 3m-75 1v4c17.595 7.486 35.883 10.787 55 9a154 154 0 0 0 10-2l1-4c-20.933-10.015-43.354-11.328-66-7m105 14v4c17.18 7.853 33.45 11.363 52.438 9.8 5.198-.511 10.38-1.135 15.562-1.8l-1-5c-21.882-6.928-44.079-12.888-67-7m-21 17c-2.337 5.08-3.899 9.989-5.125 15.438l-.512 2.158c-4.162 18.041-1.526 34.413 1.637 52.404h3c3.014-6.845 4.989-13.447 6.25-20.812l.508-2.938c2.36-14.347 2.083-30.463-2.86-44.344L593 570z"/><path fill="#95D1E1" d="m668.125 81.75 3.227-.062C681.896 81.636 691.586 83.7 701 88.5l2.033 1.027c7.035 3.748 12.479 8.76 17.967 14.473l1.79 1.766c9.128 9.666 14.996 23.484 18.21 36.234 1.02 5.297 1.58 10.626 2 16 1.979-.204 1.979-.204 4-1 .893-1.682.893-1.682 1.313-3.812 3.46-11.589 11.193-21.72 19.687-30.188 9.845-8.513 21.001-13.922 33.707-16.562 21.007-2.791 39.72 2.657 59.293 9.562l3.302 1.153c3.402 1.19 6.8 2.392 10.198 3.597l3.238 1.141 3.043 1.093 2.69.96c2.746 1.147 5.116 2.306 7.529 4.056.862 1.937.862 1.937 1.2 4.11l.419 2.42L893 137q.438 2.26.895 4.516l.45 2.321a539 539 0 0 0 5.992 27.096c3.217 13.101 4.311 26.666 1.1 39.88-3.683 12.055-9.654 21.262-18.437 30.187l-1.637 1.89c-6.98 7.808-17.605 12.999-27.41 16.301-5.912 1.62-11.92 2.734-17.953 3.809l1 3a75 75 0 0 0 6.625 2.688c14.986 5.696 26.985 12.666 37.563 25 6.538 8.55 11.322 18.258 13.375 28.851 2.94 23.258-4.944 43.586-13.31 64.922-3.278 8.423-5.664 16.616-7.253 25.539l-3.164.262c-8.815.813-17.289 2.166-25.899 4.238-19.918 4.758-39.998 6.675-60.062 1.25-12.685-4.194-22.88-11.307-32.062-20.937-8.754-10.318-14.043-22.37-16.833-35.528l-.528-2.487a264 264 0 0 1-.97-4.92c-.398-1.981-.93-3.934-1.482-5.878l-3-1-1.125 3.813C725.501 361.824 719.907 370.089 713 378l-1.645 1.934c-6.518 7.121-14.997 11.514-24.105 14.441-16.73 4.933-36.36 3.73-53.11-.305-9.389-2.493-18.301-6.015-27.214-9.86-5.52-2.354-10.97-4.16-16.796-5.61C588 378 588 378 587 377a359 359 0 0 1-1.687-9.125c-1.21-6.897-2.477-13.776-3.875-20.637-8.222-40.467-8.222-40.467-1.688-59.988 4.117-10.323 10.231-19.137 18.715-26.344 11.815-9.022 24.674-14.218 39.086-17.484 3.902-.816 3.902-.816 7.156-2.98L646 239l-2.098-.445C630.106 235.392 618.37 230.485 607 222l-2.559-1.898c-8.89-7.654-14.642-18.622-18.695-29.454-4.033-12.9-4.228-26.556-1.558-39.777 2.923-12.664 7.376-24.988 11.622-37.258 2.583-7.5 4.913-14.754 6.19-22.613l3.645-.48c13.93-1.889 27.723-4.35 41.529-6.995 7.083-1.315 13.753-1.74 20.951-1.775M742 161c-1.576 1.176-1.576 1.176-3 3-.94 2.493-.94 2.493-1.57 5.332l-.778 3.17-.777 3.31c-.264 1.081-.529 2.162-.8 3.276-3.56 14.714-4.17 27.991-1.2 42.85l.526 2.637c.684 3.244.684 3.244 1.599 6.425l2 2h3c7.432-22.372 7.68-41.527 4.502-64.575-.546-2.637-1.435-4.957-2.502-7.425zm-12 77c-3.408 2.944-6.172 5.863-8 10-.409 3.116-.589 5.01 0 8 1.853 4.2 4.27 7.322 7.625 10.438 2.439 1.604 4.46 2.436 7.355 2.835 3.328.154 6.104.07 9.247-1.109 2.919-1.629 5.116-3.333 7.195-5.96 1.653-2.832 2.513-5.227 2.73-8.509-.257-3.914-1.055-6.51-2.902-10.007-2.928-3.498-5.706-5.935-9.812-7.938-5.26-1.618-8.72-.15-13.438 2.25m-76 1c.204 1.952.204 1.952 1 4 9.08 6.12 24.483 8.802 35.277 9.752 10.152.633 21.107.829 30.723-2.752-.684-1.977-.684-1.977-2-4-11.872-6.55-26.928-8.543-40.297-8.4l-4.453.088q-2.296.016-4.594.029c-7.922-.13-7.922-.13-15.656 1.283m103 15c.721 1.946.721 1.946 2 4 8.427 5.99 19.92 8.545 30 10 4.582.215 9.164.185 13.75.188l3.71.037c7.097.011 13.655-.466 20.54-2.225l1-3c-21.406-7.347-21.406-7.347-43.637-10.133l-2.184-.003q-2.272 0-4.545.006c-2.324.005-4.648 0-6.972-.007q-2.213 0-4.424.004l-2.108-.006c-3.689-.03-3.689-.03-7.13 1.139m-20 16c-6.893 13.293-8.763 27.816-8.34 42.629.43 8.545 1.822 16.961 3.34 25.371l4 1c8.025-19.66 9.466-38.924 6.73-59.8-.78-3.42-2.04-6.138-3.73-9.2z"/><path fill="#4DA0C5" d="m653 240 1.353 1.41c5.577 5.385 17.298 6.74 24.647 8.59 14.14 3.078 28.786 2.206 43 0l.75 3.625c1.027 4.087 2.613 7.04 5.25 10.375 2.409 2.117 3.931 2.977 7 4 3.07.424 5.93.44 9 0 3.047-1.249 5.56-2.784 8-5 1.268-2.585 1.268-2.585 2-5 1.848-1.273 1.848-1.273 4-2a213 213 0 0 1 5.254 3.488c3.648 2.009 7.38 3.118 11.371 4.262l2.208.637c8.708 2.427 16.9 2.796 25.917 2.8l3.71.038c6.343.01 12.246-.275 18.426-1.751 4.776-1.07 8.971-1.117 13.677.296 3.229 1.269 6.317 2.71 9.437 4.23l2.232 1.073c9.985 4.847 19.191 9.618 26.768 17.927l2.125 2.293c7.696 8.934 13.19 19.647 15.438 31.246 2.94 23.258-4.944 43.586-13.31 64.922-3.278 8.423-5.664 16.616-7.253 25.539l-3.164.262c-8.815.813-17.289 2.166-25.899 4.238-19.918 4.758-39.998 6.675-60.062 1.25-12.685-4.194-22.88-11.307-32.062-20.937-8.754-10.318-14.043-22.37-16.833-35.528l-.528-2.487a264 264 0 0 1-.97-4.92c-.398-1.981-.93-3.934-1.482-5.878l-3-1-1.125 3.813C725.501 361.824 719.907 370.089 713 378l-1.645 1.934c-6.518 7.121-14.997 11.514-24.105 14.441-16.73 4.933-36.36 3.73-53.11-.305-9.389-2.493-18.301-6.015-27.214-9.86-5.52-2.354-10.97-4.16-16.796-5.61C588 378 588 378 587 377a359 359 0 0 1-1.687-9.125c-1.21-6.897-2.477-13.776-3.875-20.637-8.222-40.467-8.222-40.467-1.688-59.988 4.117-10.323 10.231-19.137 18.715-26.344 11.08-8.46 23.06-13.6 36.535-16.906l2.48-.613 2.082-.512c3.363-.767 3.363-.767 6.125-2 2.667-1.009 4.486-1.247 7.313-.875m84 30c-6.893 13.293-8.763 27.816-8.34 42.629.43 8.545 1.822 16.961 3.34 25.371l4 1c8.025-19.66 9.466-38.924 6.73-59.8-.78-3.42-2.04-6.138-3.73-9.2z"/><path fill="#86BA64" d="M773 681q1.72 1.28 3.438 2.563l2.242 1.664a105 105 0 0 1 4.328 3.484C791.756 696.062 802.97 701.116 814 704l2.215.617c12.849 2.964 28.313 2.817 41.02-.61 3.742-1.363 7.15-3.138 10.546-5.214L870 698c2.836.728 4.612 1.675 6.852 3.55l1.773 1.763c6.165 5.572 13.453 8.525 21.53 10.274 5.315.772 10.665.591 16.021.502 2.191-.035 4.382-.055 6.573-.072q9.334-.074 18.667-.209c3.823-.054 7.646-.088 11.469-.11a407 407 0 0 0 4.348-.06 437 437 0 0 1 6.078-.06l3.484-.046c3.944.576 6.071 2.058 9.205 4.468a155 155 0 0 1 4.875 4.313c2.973 2.72 5.95 5.426 9 8.062 4.412 3.84 8.704 7.812 13 11.781a345 345 0 0 0 7 6.223c4.126 3.598 8.138 7.307 12.125 11.058l2.123 1.993a424 424 0 0 1 12.02 11.743c1.794 1.765 3.643 3.414 5.552 5.054 4.337 3.77 8.514 7.691 12.68 11.648 5.352 5.06 10.73 10.08 16.23 14.98a842 842 0 0 1 8.52 7.77c3.237 2.977 6.486 5.935 9.813 8.813 4.136 3.583 8.14 7.305 12.144 11.036 2.9 2.695 5.835 5.337 8.824 7.932 4.822 4.2 9.453 8.592 14.094 12.989a397 397 0 0 0 12.139 10.984c2.568 2.237 5.091 4.518 7.611 6.808.902.82 1.805 1.638 2.734 2.481 2.227 2.064 4.377 4.18 6.516 6.332-17.546 1.24-35.108 1.244-52.687 1.25l-2.35.002c-24.77.013-49.321-.506-73.963-3.252l-4.21-.454C964.673 871.512 907.444 857.269 862 824c-11.102-8.194-21.251-17.236-31-27l-2-1.86c-22.457-21.228-40.107-52.721-49-82.14-7.253-25.246-7.253-25.246-7-32"/><path fill="#4B8C4A" d="M753 718h2l.667 2.161C765.05 750.211 778.643 776.823 799 801l1.508 1.812c5.868 7.035 11.832 13.88 18.492 20.188-4.766 10.216-12.918 18.516-20.634 26.57a334 334 0 0 0-3.42 3.645c-5.53 5.802-11.84 10.6-18.198 15.448-1.607 1.229-3.2 2.475-4.791 3.724-47.162 36.47-107.941 51.373-165.886 59.228-13.658 1.78-27.35 3.185-41.071 4.385l-2.48.223c-8.192.702-16.395.825-24.614.832l-2.462.005c-8.148.012-16.296-.017-24.444-.06 4.405-5.224 8.982-10.233 13.688-15.187A1538 1538 0 0 0 544 901a2488 2488 0 0 1 19.727-21.352c7.255-7.764 14.505-15.535 21.586-23.46 3.994-4.461 8.084-8.827 12.187-13.188 6.734-7.16 13.37-14.387 19.813-21.812 3.632-4.172 7.392-8.222 11.152-12.278a669 669 0 0 0 8.785-9.66c4.864-5.434 9.881-10.723 14.903-16.01a385 385 0 0 0 11.253-12.41c2.159-2.479 4.374-4.905 6.594-7.33 3.522-3.853 6.974-7.75 10.332-11.746 3.737-3.93 6.904-5.99 12.106-7.57q3.274-.899 6.562-1.746l3.501-.919c15.49-3.936 30.53-6.003 46.499-5.519z"/><path fill="#2D74AA" d="M1095.819 427.974q4.534.029 9.07.052c10.312.054 20.624.122 30.937.213q7.207.065 14.413.107 6.855.04 13.71.117 2.554.025 5.11.035c2.361.01 4.722.037 7.084.07l2.064-.005c5.08.099 9.234 1.328 13.793 3.437 3.442 2.112 5.338 4.261 7.25 7.75 1.834 4.05 2.96 7.778 2.75 12.25-.88 4.567-2.424 8.598-5.25 12.312-3.49 3.411-6.964 5.836-11.703 7.285-2.131.42-4.066.53-6.237.534l-2.51.012-2.727-.001-2.895.01q-3.111.011-6.223.017-4.94.012-9.88.041c-9.363.052-18.726.1-28.09.116-5.73.01-11.46.04-17.19.081q-3.26.019-6.523.015c-16.836-.258-16.836-.258-32.772 4.578-3.984 2.932-5.982 5.182-8.035 9.586-1.123 2.81-2.046 5.656-2.965 8.539-1.969 6.067-4.227 10.179-8.875 14.625-3.92 2.822-7.322 4.062-12.13 4.564l-3.266.09-3.846.111-4.254.09-4.578.115c-14.318.332-28.64.388-42.961.456l-14.424.072-3.654.018q-9.306.044-18.61.06c-6.11.01-12.219.04-18.328.081q-3.45.019-6.9.015c-3.197-.002-6.392.02-9.588.048l-2.813-.02c-6.472.092-12.089 1.347-17.773 4.55-2.492 2.437-4.232 5.002-6 8l-1.591 2.682a466 466 0 0 0-5.096 9.13 951028117.718 951028117.718 0 0 0-5.527 9.99c-3.035 5.436-6.171 10.814-9.322 16.184-4.918 7.644-4.918 7.644-6.964 16.264.218 5.664 2.577 9.994 5.5 14.75 1.766 2.6 3.57 5.155 5.45 7.676 2.973 4.457 2.973 4.457 3.55 7.324a58 58 0 0 1-4.062 7.562 738 738 0 0 0-2.54 4.29l-1.254 2.13c-4.758 8.397-8.035 17.588-8.456 27.268.089 5.084 1.426 9.85 2.753 14.734.57 3.075.393 5.032-.441 8.016-9.668 2.864-20.353 3.08-30.293 1.465A71 71 0 0 1 815 675l-2.383-.879c-5.53-2.24-10.085-5.262-14.617-9.121l-2.066-1.742c-5.722-5.233-9.21-11.016-11.934-18.258-2.506-8.709-3.923-17.062-2-26 2.687-10.678 8.749-20.414 14-30l1.114-2.035c5.252-9.549 10.789-18.931 16.302-28.331 5.221-8.938 10.245-17.976 15.247-27.037a736 736 0 0 1 11.837-20.652c2.978-5.01 5.817-10.088 8.625-15.195C860.01 475.99 860.01 475.99 864 472c5.238-1.287 10.527-1.145 15.886-1.142l2.968-.01q3.183-.011 6.365-.017 5.045-.012 10.09-.041c9.563-.052 19.125-.1 28.687-.116 5.856-.01 11.71-.04 17.566-.081q3.338-.02 6.674-.015c3.12.002 6.24-.02 9.36-.048l2.753.02c6.412-.093 12.033-1.348 17.651-4.55 5.309-5.342 7.266-12.138 9.177-19.24 1.258-4.558 2.974-7.99 5.823-11.76 3.155-2.913 5.92-4.702 10-6 2.91-.236 5.732-.372 8.645-.414l2.602-.059c2.855-.061 5.71-.107 8.566-.152l6.146-.113c20.954-.363 41.903-.424 62.86-.288"/><path fill="#95D0E0" d="M858 10c2 .126 2 .126 4 1 1.58 1.711 1.58 1.711 3.102 3.945l1.72 2.493 1.803 2.687 1.87 2.733c1.848 2.706 3.678 5.422 5.505 8.142l2.965 4.383c3.413 5.072 6.78 10.138 9.847 15.43 1.908 3.229 1.908 3.229 4.563 4.687 3.47.661 6.08.913 9.625.5 2.405-1.131 4.632-2.403 6.887-3.809 2.793-1.574 5.142-2.17 8.352-2.238l2.429.082c8.219.111 8.219.111 16.332-1.035 3.232-2.19 4.935-4.235 7.152-7.418 3.281-4.585 8.063-7.025 12.903-9.73C959 31 959 31 962.313 30.875c3.661 1.117 4.624 1.647 7.125 4.313 3.462 4.297 6.133 9.029 8.722 13.887 1.905 3.533 3.736 6.36 6.84 8.925 2.55 1.355 2.55 1.355 5.313 2.438 4.794 2.1 8.699 4.155 12.687 7.562 1.734 2.662 2.877 4.954 3.252 8.135.08 2.462.06 4.902-.002 7.365l-.033 2.655A289 289 0 0 1 1005 108c3.504-.34 5.749-.84 8.746-2.742l2.692-2.133c7.668-5.751 7.668-5.751 12.562-7.125 9.259-.805 17.583.987 26.5 3.313l3.723.935q3.637.916 7.27 1.856 3.5.894 7.015 1.726l3.273.775 2.908.673C1082 106 1082 106 1084 108a70 70 0 0 1-.625 7.313l-.285 2.239c-.84 6.266-1.928 12.484-3.09 18.698l-.502 2.704-.498 2.562-.437 2.258c-.637 2.519-1.553 4.836-2.563 7.226l-3.713.06q-6.868.117-13.737.257-2.963.057-5.927.105c-2.852.046-5.704.104-8.557.164l-2.643.035c-7.971.188-15.216 1.287-22.235 5.254l-2.708 1.492c-2.561 1.56-2.561 1.56-4.617 3.828L1010 164h-3c-3.5-7.162-5.573-12.989-5.176-21.016L1002 141l-1.305 1.43C999 144 999 144 995.875 145.125c-2.93.662-5.362.999-8.312 1.188-3.637.323-5.934 1.272-9 3.25l-1.934 1.378L975 152h-2c.147 3.46.457 6.008 2.132 9.067 2.666 3.963 5.419 7.667 8.622 11.214l1.896 2.114a215 215 0 0 0 3.93 4.21c1.843 2.093 3.274 3.85 4.42 6.395-.257 3.394-1.423 6.013-3 9l-1.254 2.54-1.308 2.085-1.583 2.547a293 293 0 0 1-4.117 6.094q-1.245 1.803-2.488 3.609l-1.3 1.862c-2.533 3.75-4.578 7.49-6.395 11.638-4.972 11.327-4.972 11.327-7.555 14.625-3.156 1.352-3.156 1.352-6.375 1.5l-2.96-.406L953 240c-2.704 1.975-3.898 3.799-5.414 6.777-2.157 5.63-3.795 10.779-4.461 16.786-.92 7.224-3.946 12.554-8.125 18.437-3.474 4.369-7.67 6.917-12.687 9.25-4.548 1.03-8.776.821-13.313-.25-4.577-2.116-7.157-5.387-10.062-9.375l-2.536-3.398-1.211-1.664c-1.107-1.453-2.332-2.814-3.562-4.165L890 270c-.035-2.543-.035-2.543 1-5 2.004-2.176 2.004-2.176 4.563-4.312a154 154 0 0 0 11.648-11.06c1.896-1.725 3.378-2.754 5.789-3.628 6.82.097 12.715 3.06 18.504 6.402 3.097 1.983 5.79 4.112 8.496 6.598 1.961-3.518 2.984-7.13 4.063-11l1.035-3.687A269 269 0 0 0 947 237l-1.836-.445c-7.708-2.064-14.344-5.282-20.43-10.496C923 224 923 224 922.54 222.063A79.6 79.6 0 0 1 924 209.75c1.054-5.817 1.192-11.482 1.188-17.375l.001-2.638c-.043-5.283-.458-10.314-1.367-15.524L924 172c1.557-2.135 1.557-2.135 4-4 3.157-1.309 3.157-1.309 6.855-2.437l2.004-.627a746 746 0 0 1 6.328-1.936q4.15-1.271 8.293-2.562l2.004-.622c4.463-1.41 8.702-3.068 12.908-5.117C968 154 968 154 970 154v-3c-.714-.26-1.428-.52-2.164-.79-2.981-1.272-5.503-2.808-8.211-4.585l-2.937-1.863C954 142 954 142 952.188 140.582c-1.787-1.41-1.787-1.41-5.188-2.582-3.255.233-6.362.784-9.566 1.398-3.392.595-6.62.885-10.059.977l-2.914.086L922 140c-2.077-2.025-2.917-3.773-3.914-6.488-1.81-7.187-2.526-13.985-2.777-21.36-.075-3.31-.075-3.31-2.309-6.152-1.94-.942-1.94-.942-4.187-1.562l-2.415-.743L904 103l-2.148-.633c-1.614-.467-3.233-.92-4.852-1.367-.235-7.725.492-15.16 1.5-22.812q.426-3.29.844-6.583l.38-2.901c.36-3.08.36-3.08.276-7.704l-10-1-1.504 3.402c-4.283 9.509-8.593 17.57-15.933 25.098-2.747 1.608-5.074 2.157-8.224 2.5-4.455 0-8.554-1.44-12.777-2.75-8.11-2.52-8.11-2.52-16.496-3.617-4.6-.228-7.874-.556-12.066-2.633-3.826-5.119-5.574-11.347-7.276-17.43-1.1-3.904-2.417-7.732-3.724-11.57q-3.094.214-6.187.438c-1.15.08-2.298.162-3.481.246-2.848.27-5.544.691-8.332 1.316l.219 3.078c.296 4.306.546 8.613.781 12.922l.207 3.629.106 3.183.113 2.833L795 83c-2.265 2.459-4.32 3.107-7.504 4.176q-2.028.573-4.058 1.136c-10.571 3.141-18.877 7.813-27.247 15.051C754 105 752.62 105.441 750 106l-2.238-3.113c-10.899-15.224-10.899-15.224-25.512-26.574-1.914-1.364-1.914-1.364-3.25-3.313-.472-4.715.014-9.104.691-13.777.313-2.25.54-4.493.746-6.754q.216-2.172.438-4.344l.199-2.072c.23-1.92.23-1.92.926-5.053 3.45-2.3 6.412-2.723 10.414-3.29a986.876 986.876 0 0 1 6.844-.998c2.34-.333 4.675-.682 7.012-1.032 18.588-2.735 18.588-2.735 23.805-.983 5.126 2.21 9.293 5.834 13.53 9.4 3.33 2.647 6.14 4.587 10.297 5.633 3.377.294 6.309.077 9.66-.417l3.317-.45c3.587-.992 5.435-2.315 8.121-4.863 1.5-1.826 1.5-1.826 2.75-3.75 6.017-8.3 14.162-13.771 22.875-18.937q2.708-1.628 5.414-3.262l2.575-1.545c2.198-1.387 4.23-2.876 6.284-4.463z"/><path fill="#12243E" d="M1097.813 1153.688c4.911 2.87 8.988 6.44 13.093 10.359 2.136 2.098 2.136 2.098 5.094 3.953v-19h37q.07 24.269.104 48.536.014 11.273.047 22.544.03 9.841.037 19.683.003 5.195.023 10.391c.196 51.64.196 51.64-11.879 74.006-5.544 9.568-13.776 17.341-23.332 22.84-17.1 9.341-35.102 11.436-54.285 11.215-19.757-.532-38.655-6.35-55.715-16.215-5.665-3.594-5.665-3.594-8-6l-1-3c.849-2.021.849-2.021 2.203-4.309l1.473-2.513 1.574-2.616 1.527-2.603c2.25-3.805 4.52-7.456 7.223-10.959 3.15 1.083 5.757 2.465 8.5 4.313 12.21 7.765 27.199 11 41.5 11.687l2.414.125c9.633.251 19.183-.656 27.961-4.812 5.996-3.314 11.24-6.78 15.117-12.524 6.42-11.74 7.054-24.721 7.508-37.789l-1.293 1.215c-10.682 9.713-21.531 16.946-35.629 20.527a84.2 84.2 0 0 1-43.332-2.844c-12.235-4.844-22.808-11.588-31.164-21.875-7.976-10.982-13.924-23.44-15.582-37.023-.925-13.196-.58-25.478 4-38l.91-2.523c4.647-11.466 12.016-21.46 21.715-29.04 11.74-8.49 24.337-13.5 38.75-15.25 14.925-.885 29.943.687 43.438 7.5m-52.626 29.124c-7.585 5.519-11.938 10.911-16.023 19.418-3.603 8.572-2.823 18.646-2.164 27.77 1.267 6.575 4.082 11.996 8.316 17.16 6.046 6.607 12.211 10.806 20.684 13.84 8.887 2.59 17.379 2.672 26.438.938 7.837-1.983 13.919-5.581 19.847-11.043 5.773-6.097 9.23-12.724 12.027-20.582 1.665-7.89 1.643-16.834-.437-24.626-2.651-7.457-6.841-14.558-12.613-20.019-5.772-4.256-13.202-8.198-20.262-9.668-12.932-1.14-24.597-.195-35.812 6.813"/><path fill="#13243E" d="M610 1092h36q.231 39.794.443 79.588.098 18.476.205 36.952.094 16.1.177 32.2.043 8.53.096 17.057.049 8.022.086 16.045.014 2.948.035 5.897.026 4.018.04 8.035l.02 2.37c.008 3.426-.012 6.584-1.102 9.856-12.06.113-23.976-.028-36-1l-1-17-3.875 4.125c-6.949 6.906-14.438 11.193-23.8 14.059-14.08 3.457-27.873 3.57-42.013.129-12.895-3.752-24.024-10.39-33.937-19.438-8.205-8.678-13.893-19.54-17.375-30.875l-.965-3.117c-3.752-14.42-3.517-30.933-.074-45.395 3.138-10.533 7.117-19.815 14.039-28.488l1.355-1.848c7.164-9.222 17.957-15.797 28.645-20.152 7.519-2.58 15.032-4.683 23-5l2.793-.121c12.614-.278 25.926 1.764 37.191 7.691 5.843 3.6 11 7.765 16.016 12.43l-.214-1.902c-.805-7.828-.931-15.58-.919-23.446l-.003-4.041q-.002-4.197.006-8.393.006-5.382-.004-10.763-.005-4.155 0-8.31 0-2.95-.005-5.9l.01-3.593.002-3.17C609 1094 609 1094 610 1092m-68.75 92.75c-6.328 4.531-10.697 9.662-14.062 16.688-4.3 10.365-4.994 20.426-4.188 31.562 1.3 9.446 4.908 17.719 10.746 25.254 5.92 6.485 13.404 10.105 21.637 12.89 7.858 1.859 17.078 1.832 24.93-.207 6.659-2.41 12.853-6.014 17.796-11.113 6.23-7.707 9.857-15.726 11.516-25.512 1.264-11.909.48-23.747-4.312-34.832-3.478-6.573-7.894-11.91-14.188-15.918A109 109 0 0 0 586 1181l-2.191-1.027c-13.944-5.263-30.155-2.815-42.559 4.777"/><path fill="#579651" d="M580.953 702.984c3.14 1.558 4.543 3.99 6.547 6.828 3.148 4.43 3.148 4.43 6.781 8.45L596 720v2l1.8.809c2.239 1.212 3.6 2.458 5.388 4.254 11.56 10.254 26.759 15.434 41.652 18.527 4.501.584 9.002.775 13.535.972l2.809.131q3.408.159 6.816.307c-1.424 2.978-2.779 4.98-5.187 7.25-2.467 2.39-4.779 4.818-7 7.438-3.11 3.613-6.424 6.965-9.813 10.312-3.87 3.827-7.588 7.7-11.125 11.84-7.493 8.632-15.467 16.866-23.29 25.2-11.475 12.215-11.475 12.215-22.612 24.737-3.336 3.759-6.785 7.413-10.213 11.088a387 387 0 0 0-9.889 11.014c-2.575 2.919-5.224 5.767-7.871 8.621-3.807 4.106-7.563 8.241-11.227 12.477-3.074 3.508-6.238 6.936-9.382 10.382a341 341 0 0 0-5.641 6.391c-4.02 4.639-8.268 9.062-12.478 13.528-4.36 4.66-8.384 9.479-12.362 14.468-2.405 2.838-4.932 5.04-7.91 7.254-1.036-12.275-1.2-24.499-1.187-36.812v-3.046C500.847 862.26 502.2 835.638 506 809l.331-2.398a289.6 289.6 0 0 1 20.169-72.727l1.04-2.57c1.01-2.277 2.003-4.283 3.46-6.305 3.316-1.918 3.316-1.918 7-3l3.621-1.105 3.817-1.082c11.406-3.414 22.305-8.595 31.765-15.88 1.797-.933 1.797-.933 3.75-.949"/><path fill="#87BB64" d="m995.438 551.734 2.777-.005q2.91-.003 5.82.01c2.927.01 5.854 0 8.781-.012 9.898-.009 19.455.233 29.184 2.273l2.51.504c16.265 3.483 29.419 10.309 43.197 19.413 12.662 8.338 25.895 15.674 41.293 17.083 4.551.158 9.101.164 13.655.174l4.147.02q4.45.021 8.9.036c4.7.015 9.4.04 14.1.065q20.04.105 40.084.182 11.08.043 22.161.106 6.994.04 13.988.056 4.37.016 8.74.047 2.96.013 5.923.013c17.248.14 17.248.14 23.708 3.584 3.417 2.258 5.99 4.823 8.094 8.342 1.893 4.412 2.063 8.717 1.883 13.473-.562 4.262-1.79 7.474-4.383 10.902-2.861 2.991-6.103 5.538-10 7-4.053.794-7.896 1.128-12.023 1.14l-3.587.018-3.897.003-4.136.015q-5.608.019-11.216.024l-7.032.012q-11.04.02-22.078.027-12.672.007-25.343.05-9.836.034-19.673.034-5.853 0-11.707.025c-27.448.12-52.682-1.623-77.17-15.11-3.941-2.282-7.752-4.766-11.575-7.238-6.013-3.884-12.035-7.48-18.5-10.562l-1.93-.94c-12.479-5.728-24.857-5.966-38.32-6.06q-4.02-.035-8.04-.092-2.481-.037-4.962-.044c-6.272-.084-12.59-.692-18.264-3.529-3.894-3.03-7.253-6.108-9.7-10.437-1.72-4.74-1.552-9.398-.847-14.336 1.12-3.942 2.846-6.775 5.648-9.75 6.238-5.666 11.57-6.554 19.79-6.516"/><path fill="#6AA454" d="m916.819 632.725 2.95-.015c3.215-.014 6.43-.013 9.645-.01l6.758-.014q7.095-.01 14.188-.002c6.007.006 12.013-.01 18.02-.034 4.66-.015 9.32-.016 13.981-.013q3.317 0 6.633-.015c23.436-.095 44.32 2.06 65.006 13.628 5.47 3.141 10.798 6.498 16.125 9.875 14.571 9.194 29.57 16.146 46.875 17.875q3.777.14 7.558.158l2.147.015q2.286.016 4.57.026 3.628.02 7.256.053c6.87.062 13.742.116 20.613.15 4.218.02 8.435.056 12.652.1q2.397.021 4.792.026c8.279.018 15.684.112 23.412 3.472 4.334 2.71 7.364 5.946 10 10.312 1.282 4.727 1.665 8.83 1 13.688-1.15 4.02-3.002 6.924-5.836 9.98-3.89 3.614-6.998 5.587-12.164 7.02a100 100 0 0 1-7.663.275l-2.255.015c-2.45.014-4.901.013-7.352.01l-5.165.014q-5.418.01-10.836.002c-4.581-.006-9.162.01-13.743.034-3.561.015-7.123.016-10.684.013q-2.529 0-5.058.015c-23.492.125-45.733-4.696-66.244-16.378-4.211-2.479-8.386-5.017-12.56-7.559-17.501-10.601-34.604-18.062-55.345-18.618-4.605-.074-9.209-.078-13.814-.067-3.062.006-6.124-.004-9.185-.017a4719 4719 0 0 0-26.08-.044 2183 2183 0 0 1-16.041-.046 659 659 0 0 0-6.073.004c-2.83.014-5.66-.002-8.49-.025l-2.493.035c-5.566-.088-9.302-1.532-14.07-4.383-2.245-1.554-3.822-3.141-5.349-5.405l-1.406-2.008c-2.053-3.503-2.31-6.571-2.407-10.555.053-4.857.57-8.433 3.047-12.628 2.707-3.6 5.664-5.992 9.848-7.8 4.47-1.156 8.638-1.171 13.237-1.159"/><path fill="#3D88B9" d="M552 168c2.468 1.152 4.048 2.048 6 4 .575 2.084.575 2.084 1.043 4.664l.554 2.878.59 3.083c3.374 16.408 9.332 30.317 20.25 43.266 2.78 3.117 5.61 6.156 8.563 9.109v4c-2.055 1.902-2.055 1.902-4.875 3.938C574.122 250.78 566.517 261.586 561 273c-4.725 11.9-7.048 23.557-7.656 36.348L553 312l-2 2c-2.137-.348-2.137-.348-4.687-1.062-2.696-.608-4.703-1.06-7.422-.516-2.507 1.05-4.647 2.383-6.766 4.078-1.342 1.625-1.342 1.625-2.125 4.5a163 163 0 0 0-.187 7.313l-.043 3.925c.228 3.727.582 6.412 2.23 9.762 2.193 1.317 2.193 1.317 5 2q3.751 1.464 7.5 2.938l1.973.763c3.731 1.474 7.244 2.979 10.527 5.299 1.956 3.574 2.98 6.147 3.074 10.23L560 366l-1.633-.443c-2.475-.67-4.952-1.332-7.43-1.995l-2.568-.697c-20.533-5.47-42.656-3.648-63.369.135l-3.734.645c-2.428.428-4.849.874-7.266 1.355 3.49-5.522 7.129-10.477 11.68-15.176L487 348v-4l-2.779-.67q-5.174-1.256-10.344-2.528-2.224-.545-4.45-1.082c-21.42-5.171-21.42-5.171-27.302-10.158L440 327l-1.988-2.238c-7.13-9.788-8.364-25.475-10.887-37.2l-.495-2.276q-.696-3.233-1.372-6.47l-.808-3.83L424 272l1-2c2.135-.774 2.135-.774 4.977-1.516l3.189-.845 3.459-.889 7.137-1.86 3.661-.947a507 507 0 0 0 10.034-2.771l3.058-.855q2.835-.792 5.657-1.627c7.899-2.162 14.938-1.687 22.828.31 3.36.485 3.36.485 7 0 4.943-2.207 9.094-5.997 12.648-10.023 2.327-3.403 2.854-6.735 3.164-10.79.126-2.49.18-4.964.183-7.457.007-3.979.165-7.949.326-11.924q.115-2.988.165-5.977c.146-5.573.59-9.926 3.514-14.829 2.197-2.257 4.6-4.124 7.125-6l2.05-1.582A580 580 0 0 1 531 186c7.407-5.603 14.223-11.659 21-18m-42 83a94 94 0 0 0-6.125 5.25l-1.668 1.488c-2.974 2.718-2.974 2.718-5.013 6.138-.359 2.198-.359 2.198.683 4.407l1.404 2.498 1.543 2.786 1.676 2.933 1.68 2.994q1.653 2.937 3.321 5.865a377 377 0 0 1 3.647 6.582c3.025 5.467 5.576 9.618 10.852 13.059 3.114 1.72 5.358 2.04 8.938 2.438 3.336-.114 4.355-.606 7.437-2.375 1.653-1.604 2.55-2.883 3.438-5.012.608-2.352.887-4.64 1.187-7.051l.47-2.452c.36-3.15.288-5.453-.47-8.548-3.33-4.673-7.4-8.397-11.625-12.25a1356 1356 0 0 1-4.941-4.687 487 487 0 0 0-3.18-2.99c-2.815-2.633-5.41-5.316-7.84-8.307L513 251z"/><path fill="#13253E" d="M206.934 1152.508c9.823 4.547 17.453 10.712 23.941 19.367 3.349 5.082 5.41 10.306 7.125 16.125l.648 2.063c3.843 14.256 2.493 30.64 2.45 45.289l-.005 5.64q-.006 7.323-.024 14.647-.014 7.513-.02 15.025-.016 14.668-.049 29.336-6.244.037-12.488.055-2.121.008-4.242.02-3.06.017-6.122.023l-3.713.016C211 1300 211 1300 205 1299v-15l-3.375 3.125c-8.388 7.297-17.666 11.946-28.46 14.563-13.171 2.542-27.3 2.36-40.165-1.688-8.13-3.141-17.346-7.188-23-14-4.84-6.43-8.768-12.97-10-21-.858-10.233-.227-19.467 4-29 3.552-6.709 7.954-11.453 14.352-15.535 17.433-9.643 38.865-7.852 58.148-8.09q3.866-.057 7.73-.117 9.385-.142 18.77-.258-.425-3.33-.871-6.656l-.49-3.744c-.917-5.167-2.475-9.4-5.639-13.6-4.004-3.795-8.618-6.105-13.812-7.875-13.27-3.126-28.195-1.819-41.188 1.875-5.59 1.873-10.992 3.916-16.184 6.719L122 1190l-3-1c-1.35-2.269-1.35-2.269-2.7-5.242l-1.474-3.23-1.513-3.403-1.55-3.379C108 1165.415 108 1165.415 108 1162c29.37-14.62 67.567-22.134 98.934-9.492m-61.22 85.199c-4.27 3.22-7.025 6.706-9.151 11.605-.733 4.8-.69 8.956.437 13.688 1.575 3.897 3.604 6.828 6.828 9.535 5.55 3.748 10.943 5.223 17.555 5.719 8.816.28 16.502-.693 24.617-4.254 3.002-1.713 5.497-3.623 8-6l1.71-1.625c3.51-3.697 5.365-7.303 6.767-12.191 1.54-6.425 1.642-12.619 1.523-19.184-30.035-3.582-30.035-3.582-58.285 2.707"/><path fill="#11233D" d="M416.629 1154.469c9.116 5.887 15.753 13.71 20.805 23.234 7.142 15.514 6.99 32.237 6.859 48.957q-.009 3.192-.013 6.384c-.011 5.542-.04 11.084-.074 16.625-.031 5.679-.044 11.357-.06 17.036-.031 11.099-.084 22.197-.146 33.295h-38l-.06-8.011q-.102-13.141-.228-26.283-.076-7.964-.134-15.927-.056-7.693-.136-15.386-.028-2.926-.045-5.853c-.017-2.745-.046-5.49-.078-8.235l-.007-2.413c-.128-8.762-1.665-16.885-5.843-24.634-2.319-3.564-4.85-6.033-8.469-8.258-7.797-3.795-15.013-5.373-23.672-5.277-6.62.551-12.925 2.344-18.715 5.632A50.4 50.4 0 0 0 343 1190l-1.676 1.59c-4.3 4.535-6.594 9.445-8.324 15.41-2.088 11.138-2.335 22.231-2.414 33.527q-.028 2.592-.059 5.182c-.05 4.493-.09 8.986-.128 13.479-.047 5.42-.109 10.838-.168 16.258-.087 8.184-.158 16.37-.231 24.554h-37v-151h38v17h2l.758-1.785c2.347-4.186 6.275-6.646 10.242-9.215 22.303-11.443 50.295-12.56 72.629-.531M880.324 1145.844c13.332-.33 25.784 1.96 37.676 8.156 8.975 5.397 15.597 11.922 20.719 21.07 6.651 13.531 8.46 27.605 8.395 42.51v2.724c0 2.933-.008 5.865-.016 8.798l-.005 6.145q-.006 8.043-.024 16.087-.014 8.226-.02 16.451-.016 16.108-.049 32.215h-38l-.113-18.828q-.045-5.934-.096-11.867a5362 5362 0 0 1-.137-18.802q-.041-7.587-.117-15.172-.025-2.883-.035-5.765c-.044-12.26-.11-24.608-6.147-35.687-3.595-4.984-8.484-9.283-14.105-11.816-8.388-2.743-17.436-2.991-26.137-1.602-6.093 1.626-11.307 4.462-16.113 8.539-4.652 4.91-7.865 10.605-10 17-2.372 10.57-2.342 21.22-2.414 31.988q-.028 2.697-.059 5.393c-.05 4.686-.09 9.373-.128 14.06-.047 5.647-.109 11.294-.168 16.941-.087 8.54-.158 17.079-.231 25.618h-37c-1.084-3.251-1.108-5.56-1.082-8.98l.021-3.786.04-4.16q.015-2.19.028-4.376.042-5.944.094-11.888c.034-4.14.062-8.28.092-12.42q.085-11.76.18-23.523.107-13.389.203-26.778.203-27.544.424-55.089 7.663-.037 15.326-.055 2.609-.008 5.218-.02 3.741-.017 7.483-.023l2.37-.015c1.869 0 3.736.051 5.603.113l1 1c.237 2.526.422 5.031.563 7.563l.13 2.154q.159 2.64.307 5.283l2.625-2.5c10.195-8.656 21.524-13.17 34.504-15.957 3.054-.495 6.106-.554 9.195-.7"/><path fill="#6AA354" d="M773 681q1.72 1.28 3.438 2.563l2.242 1.664a105 105 0 0 1 4.328 3.484C791.756 696.062 802.97 701.116 814 704l2.215.617c12.849 2.964 28.313 2.817 41.02-.61 3.742-1.363 7.15-3.138 10.546-5.214L870 698c2.836.728 4.612 1.675 6.852 3.55l1.773 1.763c6.165 5.572 13.453 8.525 21.53 10.274 5.315.772 10.665.591 16.021.502 2.191-.035 4.382-.055 6.573-.072q9.334-.074 18.667-.209c3.823-.054 7.646-.088 11.469-.11a407 407 0 0 0 4.348-.06 437 437 0 0 1 6.078-.06l3.484-.046c3.944.576 6.071 2.058 9.205 4.468a155 155 0 0 1 4.875 4.313c2.973 2.72 5.95 5.426 9 8.062 3.505 3.054 6.946 6.174 10.375 9.313l1.539 1.405A223 223 0 0 1 1010 749l-6-2v2h-3v2h-2l-.875 1.813C997 755 997 755 995 758c-2.826.309-2.826.309-6.398.223l-3.891-.057q-2.043-.05-4.086-.104a965 965 0 0 0-7.96-.152l-3.58-.09c-3.043.178-4.488.722-7.085 2.18h-3l-1 4h-2v3c-1.856.03-1.856.03-3.75.063l-2.11.035C948 767 948 767 946.27 766.5c-2.953-.65-5.71-.611-8.735-.598l-3.974.01-2.115.013q-3.285.019-6.57.024-6.969.018-13.938.051-8.083.037-16.165.056-3.237.01-6.473.032l-3.964.01-3.497.016C878 766 878 766 875 765c-1.5-.043-3-.04-4.5 0-2.96.079-4.633-.044-7.5-1h-2.5c-2.5 0-2.5 0-5.5-1-3.513-.514-7.032-.957-10.555-1.402-3.114-.54-5.56-1.364-8.445-2.598l-3.812-.75c-10.708-2.318-20.775-6.813-30.438-11.875l-2.166-1.127c-3.73-2.013-6.903-3.888-9.584-7.248a84 84 0 0 1-3.375-7l-.904-2.102c-3.636-8.733-6.235-17.781-8.721-26.898l-.646-2.367c-3.612-13.407-3.612-13.407-3.354-18.633"/><path fill="#2D74AA" d="M935 346c2.878-.624 2.878-.624 6.28-.621l3.913-.034q2.143.019 4.287.04 2.26-.006 4.52-.017c4.09-.014 8.18.003 12.272.026 4.284.02 8.567.014 12.85.012q10.796.002 21.591.052c8.313.037 16.625.046 24.938.039 8.002-.007 16.003.004 24.005.024q5.103.011 10.206.009 6.016 0 12.034.04 2.203.01 4.408.005c12.465-.023 12.465-.023 16.98 1.855 4.72 2.729 9.037 5.771 11.888 10.523 1.638 3.926 2.305 7.787 2.113 12.035-.512 3.612-1.55 6.803-3.285 10.012-2.437 2.813-2.437 2.813-5 5l-1.875 1.688c-3.58 2.211-7.298 3.166-11.46 3.499-2.74.077-5.474.091-8.215.084l-3.147.016q-3.369.015-6.739.018-5.341.008-10.683.04c-10.123.056-20.246.087-30.369.111q-9.3.025-18.6.085-3.534.018-7.067.018c-3.303 0-6.605.018-9.907.04l-2.918-.014c-7.714.082-14.484 1.547-21.332 5.165-5.702 4.773-8.008 9.866-10.563 16.688-2.031 5.358-4.272 9.764-8.121 14.046-3.432 2.596-6.921 4.198-11.156 4.845-2.347.19-4.681.293-7.035.358l-2.562.1c-2.417.087-4.833.154-7.251.213l-3.168.09c-9.945.129-19.904-.565-29.832-1.09 7.827-14.95 16.128-29.64 24.445-44.32l2.117-3.743 1.024-1.807a672 672 0 0 0 6.71-12.263c.582-1.081 1.162-2.163 1.76-3.277a1635 1635 0 0 0 3.429-6.432l1.597-2.982 1.413-2.66c1.684-2.816 3.218-5.146 5.505-7.516"/><path fill="#3D88B9" d="M983 262c2.812-.399 5.237-.536 8.052-.501l2.515-.017c2.791-.014 5.582.001 8.373.016q2.996-.005 5.992-.016c5.434-.014 10.868-.003 16.302.014 5.685.013 11.37.007 17.054.003q14.328-.002 28.657.034c11.039.027 22.077.029 33.116.017q15.925-.014 31.852.01 6.776.007 13.553 0 7.989-.006 15.978.028 2.929.008 5.858 0c2.67-.005 5.34.007 8.012.024l2.328-.018c5.387.063 9.421 1.22 14.358 3.406 2.242 1.867 2.242 1.867 3.875 3.875l1.68 1.992c2.197 3.243 3.318 6.066 3.78 9.965.063 4.766.092 9.118-1.835 13.543-2.102 3.552-4.835 5.936-8.11 8.398-6.24 3.203-12.668 3.518-19.53 3.474l-2.686.008c-2.953.005-5.906-.003-8.86-.012l-6.373.006c-5.758.005-11.516-.003-17.274-.013-6.033-.01-12.065-.007-18.097-.007q-15.195-.002-30.392-.023-17.553-.023-35.108-.02-18.705-.001-37.412-.016l-10.763-.003q-8.468-.002-16.934-.017-3.103-.004-6.205-.004-4.245 0-8.49-.012l-2.462.004c-5.336-.022-10.509-.474-15.804-1.138l1.258-2.184c3.464-6.037 6.9-12.089 10.285-18.171l1.88-3.376a3468 3468 0 0 0 3.74-6.736l1.763-3.166 1.575-2.84L980 266l1.09-2.127z"/><path fill="#639E52" d="M1730.957 1155.371c10.098 5.405 18.754 13.036 25.043 22.629 8.76 15.4 11.882 31.937 12.113 49.52L1768 1231l-1 1c-11.84 1.73-24.084 1.146-36.012 1.133q-3.333 0-6.665.003-6.954.002-13.906-.006-8.881-.006-17.763.004-6.87.004-13.741 0-3.275 0-6.548.002-4.582.003-9.165-.007l-2.69.007c-5.89-.02-11.662-.451-17.51-1.136 1.162 10.937 4.402 21.356 10.875 30.375A135 135 0 0 0 1657 1266l1.664 2.012c6.388 7.135 14.647 11.069 23.602 14.09 12.704 3.348 26.117 2.759 38.786-.516 10.307-3.103 18.463-8.98 25.948-16.586 3 1 3 1 5.078 3.145l2.172 2.668 2.203 2.644L1758 1276c-.012 2.059-.012 2.059-1 4-6.785 8.185-16.271 13.149-26 17-14.742 5.13-30.6 6.47-46.062 4.375-14.376-2.824-26.995-9.15-38.126-18.625-10.018-9.416-16.642-21.018-20.878-34.023-4.134-15.535-3.893-31.493-.121-47.086 3.302-11.504 8.285-21.623 16.187-30.641l1.73-2.05c7.478-8.212 17.383-13.135 27.707-16.825 19.796-6.06 40.509-5.167 59.52 3.246M1664 1175c-8.104 5.928-13.245 13.162-17.508 22.195-3.19 7.418-4.492 12.618-4.492 20.805h107c0-11.461-1.878-18.928-7.16-28.977-4.012-6.592-8.633-11.947-15.14-16.16-10.538-5.59-21.35-8.543-33.31-8.21-10.621 1.088-20.535 4.365-29.39 10.347"/><path fill="#87BB64" d="M992 715c19.151.506 36.813 10.328 52.769 20.081q2.43 1.518 4.856 3.044c17.684 10.954 36.723 18.363 57.666 19.064q2.2.052 4.4.092l2.393.056c3.333.078 6.666.146 9.999.215q3.68.08 7.358.167l2.242.04c4.835.115 9.526.574 14.317 1.241 3.6 16.216 6.434 32.412 8.625 48.875l.45 3.317c6.1 45.075 6.1 45.075 5.925 62.808-5.702-4.032-10.65-8.425-15.5-13.437a2002 2002 0 0 0-3.969-4.028l-1.763-1.8c-2.414-2.37-4.963-4.557-7.55-6.735-4.073-3.672-7.87-7.633-11.728-11.53-3.658-3.68-7.367-7.192-11.338-10.536-3.176-2.854-6.15-5.9-9.152-8.934-4.198-4.237-8.402-8.377-12.953-12.238-2.695-2.32-5.307-4.728-7.922-7.137-3.69-3.396-7.392-6.776-11.125-10.125-6.226-5.59-12.38-11.255-18.541-16.916-5.112-4.696-10.228-9.387-15.397-14.021-4.5-4.038-8.939-8.14-13.373-12.251a350 350 0 0 0-9.064-8.125c-3.095-2.673-5.967-5.505-8.828-8.425-2.55-2.5-5.264-4.793-8-7.086-1.874-1.748-3.322-3.587-4.797-5.676"/><path fill="#11233D" d="M20 1092h36v208H20z"/><path fill="#4B8C4A" d="M581.016 702.953c3.063 1.616 4.502 4.053 6.484 6.86 3.148 4.429 3.148 4.429 6.781 8.449L596 720v2l1.8.809c2.239 1.212 3.6 2.458 5.388 4.254 11.56 10.254 26.759 15.434 41.652 18.527 4.501.584 9.002.775 13.535.972l2.809.131q3.408.159 6.816.307c-1.424 2.978-2.779 4.98-5.187 7.25-2.467 2.39-4.779 4.818-7 7.438-3.11 3.613-6.424 6.965-9.813 10.312-3.857 3.815-7.57 7.671-11.09 11.805-3.102 3.565-6.338 7.007-9.563 10.461-2.71 2.917-5.303 5.867-7.784 8.984C615 806 615 806 612.632 806.862L610 807c-2.315-1.214-2.315-1.214-4.672-3.047-3.395-2.535-6.772-4.913-10.406-7.094l-2.557-1.537-2.615-1.572c-8.784-5.366-16.868-11.148-24.75-17.75q-1.677-1.372-3.355-2.742c-10.228-8.416-19.624-17.324-27.386-28.107-1.037-1.42-2.144-2.79-3.259-4.151l-3-1v-2h-2c.606-2.02 1.29-4.015 2-6l.672-1.986c.916-2.261 1.838-4.076 3.328-6.014 2.939-1.634 5.982-2.283 9.25-3 13.172-3.414 24.412-8.968 35.516-16.848C579 703 579 703 581.016 702.953"/><path fill="#3D88B9" d="m1054.96 175.725 3.207-.015c3.474-.014 6.949-.013 10.423-.01l7.288-.014q7.624-.01 15.249-.002c6.497.006 12.994-.01 19.491-.034a4219 4219 0 0 1 15.044-.013q3.593 0 7.184-.015c3.355-.013 6.71-.006 10.064.006l2.965-.023c6.44.048 12.11 1.04 18.125 3.395 3.944 2.48 6.957 5.755 9.937 9.312 1.658 4.194 2.17 8.186 2.063 12.688-.826 4.603-2.422 8.577-5.25 12.312-3.47 3.392-6.902 5.757-11.579 7.286-2.812.52-5.485.525-8.347.522l-3.84.004-4.208-.01h-4.435q-6.018-.001-12.036-.013-6.29-.007-12.58-.008-11.91-.004-23.82-.021-13.56-.016-27.12-.022-27.893-.016-55.785-.05 1.438-2.893 2.878-5.784l1.62-3.254c2.678-5.28 5.8-10.258 8.94-15.275l1.908-3.126c7.869-12.625 7.869-12.625 12.654-15.561 6.607-2.05 13.094-2.292 19.96-2.275"/><path fill="#639F52" d="M1191 1150h19c5.263 10.37 10.233 20.779 14.875 31.438l1.918 4.372q2.571 5.864 5.134 11.733c13.174 30.184 13.174 30.184 26.585 60.263q.981 2.18 1.957 4.362 1.336 2.982 2.687 5.957l1.526 3.383L1266 1274l2 1 1.121-3.656c1.947-5.828 4.491-11.35 7.059-16.926 1.565-3.4 3.112-6.807 4.66-10.215l1.006-2.213c4.175-9.21 8.224-18.476 12.279-27.74l5.705-13.023c17.335-39.556 17.335-39.556 23.17-51.227h19c-2.047 6.142-4.157 11.877-6.844 17.715l-1.108 2.44q-1.167 2.568-2.34 5.135c-2.044 4.48-4.075 8.965-6.103 13.452l-1.213 2.685c-3.735 8.288-7.309 16.636-10.779 25.04-2.41 5.81-4.986 11.52-7.668 17.212-4.027 8.577-7.847 17.248-11.688 25.91q-1.98 4.46-3.962 8.917c-4.151 9.344-8.276 18.695-12.234 28.123C1277 1299 1277 1299 1276 1300a69 69 0 0 1-4.473.098l-2.724-.01-2.866-.025-2.876-.014q-3.53-.018-7.061-.049l-8.863-20.319c-7.85-17.994-7.85-17.994-11.492-26.474-12.095-28.136-24.748-56.032-37.725-83.772q-1.97-4.213-3.92-8.435l-1.004-2.14c-1.494-3.288-1.996-5.15-1.996-8.86"/><path fill="#11233D" d="M703 1149h37v151h-37z"/><path fill="#6AA454" d="M1468 1090q4.719-.042 9.438-.062l2.72-.026 2.588-.01 2.396-.016 1.858.114 1 1c.098 2.68.13 5.336.12 8.017l.003 2.576q.001 4.308-.01 8.614l.001 6.148q-.001 8.374-.013 16.748-.007 8.74-.008 17.48a52960 52960 0 0 1-.021 33.129 77240 77240 0 0 0-.022 37.704q-.016 38.792-.05 77.584c-3.74 1.247-7.232 1.146-11.125 1.125l-2.246.012A156 156 0 0 1 1469 1300l-1-1c-.098-2.693-.13-5.361-.12-8.055l-.003-2.589q-.001-4.328.01-8.655l-.001-6.178q.001-8.414.013-16.828.007-8.783.008-17.565.005-16.643.021-33.287.015-18.943.022-37.886.016-38.978.05-77.957M1555 1091a57 57 0 0 1 4.035-.098l2.451.01 2.576.025 2.588.014q3.175.02 6.35.049.231 39.768.443 79.536.098 18.465.205 36.929.095 16.09.177 32.182.043 8.522.096 17.044.049 8.019.086 16.038.014 2.945.035 5.89.026 4.018.04 8.035l.02 2.361c.009 3.792-.18 7.3-1.102 10.985q-4.47.04-8.937.063l-2.577.025-2.45.01-2.27.016L1555 1300l-1-1c-.1-2.666-.134-5.306-.127-7.972l-.005-2.562c-.004-2.855 0-5.71.003-8.566l-.006-6.113q-.004-8.327 0-16.655c.003-5.796 0-11.591 0-17.387q-.004-14.602.005-29.205.007-16.91-.002-33.819-.007-14.488-.003-28.978.003-8.666-.001-17.332-.004-8.145.005-16.291 0-2.999-.002-5.998-.002-4.074.006-8.15l-.007-2.43c.007-1.848.065-3.695.134-5.542z"/><path fill="#226091" d="M708.02 411.434c5.06.961 9.9 2.636 14.777 4.277 6.703 2.235 13.159 3.555 20.203 4.289v3h-2v3c-1.573 1.41-1.573 1.41-3.762 2.848l-2.392 1.584-2.534 1.63-2.474 1.643C725.955 436.25 722.32 438.29 718 440c-.96.773-.96.773-1.937 1.563-2.621 1.826-4.939 1.962-8.063 2.437l-2 2c-1.875.379-1.875.379-4 .563-2.38.214-3.847.36-6 1.437q-3.495.543-7 1v1h-7v1h-10v1c-3.396.03-6.792.047-10.187.063l-2.909.025-2.822.01-2.587.016c-2.591-.118-4.964-.564-7.495-1.114a240 240 0 0 0-4.812-.375c-4.16-.383-7.545-1.334-11.383-2.937-1.98-.825-1.98-.825-4.93-1.188-3.366-.585-5.83-1.977-8.875-3.5l-3.125-.5c-2.875-.5-2.875-.5-5.25-2.062-.536-.475-1.072-.95-1.625-1.438 2.138-6.302 6.485-10.27 11-15l2.102-2.531c2.226-2.435 3.913-4.044 6.898-5.469 3.74.155 6.893.886 10.473 1.965 14.767 4.334 32.803 3.2 47.726.035 3.73-.981 7.173-2.226 10.739-3.687 4.5-1.817 8.204-3.126 13.082-2.88"/><path fill="#3D88B9" d="m1242.61 174.797 2.2-.017q2.3-.014 4.6-.02c2.319-.01 4.638-.041 6.957-.072 14.96-.11 14.96-.11 21.633 3.312a31.6 31.6 0 0 1 10.5 10.625c2.005 4.61 2.057 9.22 1.879 14.188-.554 4.66-1.722 8.308-4.379 12.187-3.685 4.244-7.475 6.404-12.768 8.349-3.589 1.047-7.038 1.1-10.755 1.085l-2.383.015q-2.478.01-4.956-.003c-2.5-.008-4.998.02-7.497.052-7.71.035-14.735.055-21.82-3.39-4.514-2.746-7.349-6.49-9.915-11.053-1.945-4.449-2.361-8.775-2.191-13.602.622-5.356 2.48-9.256 5.473-13.703 3.295-3.222 6.504-5.16 10.812-6.75 4.198-1.043 8.306-1.177 12.61-1.203"/><path fill="#2D74AA" d="M1310.313 264.688c4.4 3.785 7.85 7.256 10.062 12.687 1.105 6.409 1.235 11.602-.937 17.813-1.831 4.137-3.908 6.898-7.508 9.632-5.47 3.344-11.511 4.994-17.893 5.341q-5.331.068-10.662.089c-1.831.03-1.831.03-3.7.063-8.434.036-16.578-.457-24.08-4.66-3.45-2.274-5.973-4.75-8.033-8.34-2.105-4.958-2.876-9.944-2.562-15.313 1.195-4.884 3.25-9.292 6.188-13.375 3.65-3.407 7.046-5.187 11.812-6.625 13.607-2.806 34.753-3.71 47.313 2.688"/><path fill="#87BB64" d="m1194.777 506.566 2.457-.015q2.556-.01 5.11.003c2.584.008 5.165-.02 7.748-.052 14.909-.063 14.909-.063 21.286 3.419L1233 511l1.708 1.085c3.51 2.548 5.837 5.574 7.597 9.477 1.459 5.115 1.332 10.194.695 15.438-1.081 3.934-2.826 6.698-5.543 9.71-3.978 3.734-8.217 5.762-13.457 7.29-2.838.399-5.625.445-8.488.434l-2.376.015q-2.47.01-4.943-.003c-2.49-.008-4.976.02-7.464.052-8.772.04-16.851-.114-24.729-4.498-2.79-2.254-2.79-2.254-4.625-4.562l-1.914-2.317C1168 541 1168 541 1167 538c-.997-12.866-.997-12.866 1.563-18.5 2.398-3.93 5.506-7.103 9.437-9.5 5.812-2.52 10.475-3.458 16.777-3.434M1309.617 506.7l2.473-.014q2.58-.008 5.159-.002c2.611.003 5.222-.02 7.833-.045q2.518-.004 5.035-.002l2.337-.028c5.476.046 9.525 1.178 14.546 3.391 4.15 2.685 6.422 5.276 8.875 9.563 2.263 4.915 2.801 9.226 2.54 14.609-.623 4.245-1.821 7.408-4.415 10.828-3.761 4.18-7.471 6.4-12.783 8.35-3.505 1.028-6.854 1.099-10.487 1.084l-2.308.015q-2.4.01-4.802-.003c-2.417-.008-4.83.02-7.247.052-8.668.04-16.56-.235-24.373-4.498-4.036-3.039-6.92-6.208-8.937-10.875-1.364-4.386-1.652-8.575-1.063-13.125 1-4.03 2.53-7.286 4.813-10.75 3.227-3.32 6.561-5.58 10.844-7.344 4.074-1.104 7.76-1.212 11.96-1.207"/><path fill="#3D87B8" d="M769 438c5.137.88 10.007 2.551 14.941 4.184l2.051.66 1.824.6c5.987 1.525 11.778 1.654 17.899 1.513q2.508-.034 5.017-.064a917 917 0 0 0 7.814-.14c2.535-.055 5.07-.083 7.606-.108l2.327-.073c4.243-.02 7.249.546 11.074 2.45L843 449c-2.035 7.04-5.028 12.84-8.875 19.063-5.58 9.205-10.794 18.556-15.81 28.08-2.457 4.621-4.796 8.932-8.315 12.857-3.105-.604-5.095-1.573-7.61-3.477l-2.026-1.52-2.114-1.628-2.169-1.668a1155 1155 0 0 1-4.214-3.271 136 136 0 0 0-4.554-3.33c-2.125-1.59-3.661-3.028-5.313-5.106-3.758-9.29-5.743-19.536-8.147-29.252q-.919-3.706-1.85-7.41l-1.175-4.725-.558-2.231c-1.27-5.15-1.27-5.15-1.27-7.382"/><path fill="#649F54" d="M1384 1150h19v149l-18 1-1-1a125 125 0 0 1-.205-6.034l-.06-3.957q-.027-2.18-.051-4.36l-.064-4.525q-.083-6.106-.153-12.212-.044-3.795-.093-7.59c-.276-22.065-.475-44.13-.499-66.197l-.008-3.33A681 681 0 0 1 1384 1150"/><path fill="#629E51" d="M992 715c19.151.506 36.813 10.328 52.769 20.081q2.43 1.518 4.856 3.044c10.287 6.372 20.666 11.261 32.195 14.832 2.568.842 4.82 1.746 7.18 3.043-.25 2.875-.25 2.875-1 6-1.937 1.125-1.937 1.125-4 2-1.268 2.034-1.268 2.034-2 4h-2v2l-3 2c-2.332.08-4.668.088-7 0v2l-3.375 1.313L1063 777l-2 3c-.63-.64-1.258-1.281-1.906-1.941-4.488-4.536-9.004-8.946-13.848-13.098-2.883-2.517-5.689-5.11-8.496-7.711l-1.68-1.555-3.39-3.14q-3.989-3.691-7.993-7.367l-1.507-1.385a390 390 0 0 0-8.492-7.553c-3.114-2.696-6.01-5.547-8.891-8.488-2.55-2.5-5.264-4.793-8-7.086-1.874-1.748-3.322-3.587-4.797-5.676"/><path fill="#13253E" d="M732.188 1082.063c4.726 3.256 8.338 7.437 11.25 12.374 1.154 5.259 1.136 10.436-.375 15.626-1.874 4.41-5.013 7.296-8.672 10.3-2.76 1.89-5.001 2.98-8.293 3.524-5.698.307-11.044-.18-16.348-2.387-4.076-2.24-6.211-5.485-8.621-9.379-2.205-4.143-2.53-7.746-2.469-12.355.6-4.876 2.532-8.774 5.34-12.766 3.105-3.218 6.564-5.056 10.813-6.375 5.931-1.21 11.677-.462 17.375 1.438"/><path fill="#87BB64" d="M1273 677c4.74 1.399 8.441 3.42 11.922 6.95 3.013 3.996 4.48 7.652 5.14 12.612.162 4.28-.278 7.756-2.058 11.66-2.444 4.327-5.249 7.591-9.504 10.153-4.689 2.113-9.292 2.184-14.375 2.008-3.64-.446-6.348-1.237-9.48-3.13-3.447-2.627-5.757-5.422-7.649-9.323-1.54-3.962-2.214-7.368-1.871-11.617.661-3.932 1.619-6.965 3.875-10.313 7.222-7.426 13.563-10.315 24-9"/><path fill="#3D88B9" d="M772 522c4.42 4.007 7.28 8.35 10.25 13.5l1.352 2.262c1.66 2.843 3.158 5.695 4.488 8.707-.156 4.4-2.59 7.798-4.778 11.531l-1.487 2.619c-1.596 2.801-3.21 5.59-4.825 8.381q-1.688 2.956-3.371 5.914a2953 2953 0 0 1-7.588 13.249A84 84 0 0 0 764 592l-3-1a115 115 0 0 1-4-6.375c-3.912-6.459-8.387-11.309-14.008-16.32L741 566l-.18-1.96c1.807-3.124 4.471-5.225 7.18-7.54 11.063-9.89 17.801-21.19 24-34.5"/><path fill="#6AA454" d="M921 552c4.906 1.497 8.725 3.84 12.488 7.273 2.579 2.945 3.732 5.92 4.512 9.727.55 3.932.52 7.368-.691 11.172-1.602 3.565-3.333 5.852-6.121 8.64-4.057 2.785-7.582 4.788-12.504 5.543-4.83.28-8.58-.426-12.996-2.418-3.267-1.802-5.531-3.559-7.75-6.562-2.336-4.068-3.127-6.942-3.25-11.562.05-4.704.744-8.04 3.117-12.098 2.67-3.832 5.325-6.22 9.383-8.528 4.776-1.487 8.854-1.764 13.812-1.187"/><path fill="#2E74AA" d="M1174.969 346.398c3.24.96 5.505 2.126 8.023 4.407 2.457 2.701 4.555 5.446 6.446 8.57 1.093 5.102 1.267 9.992-.09 15.063-1.583 4.02-3.49 7.05-6.66 10-3.372 2.594-6.465 3.808-10.688 4.562-4.914.447-8.659-.217-13.148-2.098-3.396-1.655-5.789-3.462-8.043-6.515-2.413-4.06-3.137-7.679-3.309-12.387.177-4.667.851-8.291 3.242-12.32 2.547-3.402 5.387-5.735 9.176-7.649 5.096-2.129 9.557-2.744 15.05-1.633"/><path fill="#6AA454" d="M1115.004 510.504c4.915 1.632 8.374 3.79 11.996 7.496 2.004 3.607 2.927 6.413 3.438 10.5-.457 3.65-1.213 5.875-3.188 8.926-2.158 2.718-4.117 4.066-7.25 5.574-4.331 1.154-8.2 1.413-12.586.406-6.107-2.18-11.085-5.568-15.414-10.406-1.33-2.135-1.959-3.61-2.223-6.113.25-3.439.643-6.013 2.575-8.922 3.398-3.655 6.905-6.053 11.68-7.531 3.835-.845 7.154-.89 10.972.07"/><path fill="#599853" d="M1394.313 1086c2.66.369 4.444.855 6.757 2.234 2.655 2.155 4.595 4.213 6.368 7.141.773 3.608 1.142 6.981.562 10.625-2.278 4.387-4.989 7.15-9 10-2.616 1.308-5.016 1.324-7.906 1.277-2.094-.277-2.094-.277-5.344-1.902-3.01-2.6-4.861-4.877-6.75-8.375-1.005-3.016-1.173-5.122-.559-8.238 1.116-3.897 2.096-6.299 4.996-9.2 6.46-3.938 6.46-3.938 10.876-3.562"/><path fill="#3F6E41" d="M753 718h2a665 665 0 0 1 1.5 4.313l.844 2.425C758 727 758 727 758 730l-6-1z"/><path fill="#95BECB" d="m811 50 1 2-17 2 2-2 1-2c1.926-.45 1.926-.45 4.313-.687l2.363-.262c2.353-.052 4.114.144 6.324.949"/><path fill="#4A8DB3" d="m510 247 2 1v3c-1.863 1.824-1.863 1.824-4.312 3.688l-2.426 1.886L503 258h-3c2.825-4.672 5.678-7.66 10-11"/><path fill="#89C0CF" d="m979 142 16 2c-3 2-3 2-5.5 2.188C987 146 987 146 984 145q-2.496-.524-5-1z"/><path fill="#93C1C8" d="M941 259h2a485 485 0 0 1-.375 5.438c-.07 1.009-.14 2.018-.21 3.058-.138.826-.274 1.653-.415 2.504l-2 1a920 920 0 0 1-.062-5.437l-.036-3.06L940 260z"/><path fill="#5987A8" d="m477 360 8 2c-3.534 2.12-6.944 2.532-11 3z"/><path fill="#769865" d="m773 681 5 5h-3l-1 3z"/><path fill="#A6C7D3" d="M896 57h5l1 4-7-1z"/></svg>