<svg xmlns="http://www.w3.org/2000/svg" width="1800" height="1396"><path fill="#FDFDFD" d="M0 0h1800v1396H0z"/><path fill="#2B70A6" d="M553.445 410.324c5.188 2.446 9.9 5.336 14.555 8.676l1.797 1.273c4.252 3.267 7.196 7.355 10.203 11.727l1.723 2.434c7.628 11.283 13.433 25.223 14.453 38.93.01 1.546-.068 3.093-.176 4.636l2-1a167 167 0 0 0 2.625-6.875c4.612-12.05 12.563-21.81 22.375-30.125 2.438-1.39 2.438-1.39 5-2 3.05.426 3.05.426 6.313 1.313 16.93 4.513 35.785 4.224 52.687-.313 5.43-1.672 10.913-3.456 16-6 6.322-.578 11.233 1.221 17.125 3.375 7.261 2.56 13.99 4.48 21.672 5.238L744 442c1 2 1 2 .875 5.75-.065 10.216 3.34 20.102 6.188 29.813 4.787 16.52 7.459 34.027 3.757 51.1-3.035 12.1-8.646 21.917-16.82 31.337-8.232 8.28-17.441 13.32-28 18l-2.96 1.313c-7.278 3.045-14.097 5.018-22.04 4.687v2l1.809.41c16.893 4.192 32.188 11.355 44.921 23.367L734 612l1.863 1.754c7.46 7.666 13.154 19.022 16.137 29.246 3.122 14.988.319 30.154-4.31 44.49a559 559 0 0 1-6.854 19.319c-4.883 12.782-4.883 12.782-7.582 26.144C733 735 733 735 732 737c-2.736.485-5.431.858-8.187 1.188-10.633 1.41-20.965 3.831-31.366 6.387-16.618 4.04-34.551 5.674-51.314 1.394-13.043-4.033-23.54-10.55-33.008-20.442-9.928-11.808-15.748-26.315-18.668-41.34-.594-4.143-.673-8.01-.457-12.187h-2l-.273 1.984c-2.52 10.458-8.47 21.166-15.727 29.016l-1.828 2.066c-8.657 9.273-19.31 14.55-31.234 18.363-15.89 4.68-33.002 3.232-48.938-.429-7.16-1.834-14.106-4.316-21.059-6.809l-5.253-1.879-2.573-.92c-5.977-2.1-11.821-3.589-18.115-4.392l-.445-3.969c-1.232-10.253-2.918-20.166-5.555-30.156-4.933-18.805-8.447-37.698-4.168-57.004 3.369-12.15 10.344-22.704 18.957-31.75 11.271-10.72 26.29-16.182 41.086-19.933 1.707-.404 3.414-.803 5.125-1.188l-1.706-.516c-17.119-5.247-32.99-11.436-45.509-24.859-8.094-9.647-12.875-20.731-15.512-33.008-3.711-22.12 3.402-43.256 10.593-63.944 3.34-9.65 5.571-18.488 6.134-28.673l2.65-.08c10.435-.486 20.151-2.42 30.288-4.858 24.305-5.8 45.795-8.939 69.507 1.262"/><path fill="#95D1E1" d="M698 108c13.172 6.393 23.435 14.94 32.004 26.945 7.545 11.547 12.727 24.747 13.808 38.555.083 1.833.153 3.666.188 5.5h2l.754-2.523c4.787-13.355 13.167-23.984 23.453-33.524 10.103-8.472 21.752-12.924 34.55-15.297 5.511-.905 10.674-1.198 16.243-.656l3.785.367c14.3 1.76 27.69 6.881 41.215 11.633 2.617.914 5.235 1.825 7.857 2.723q2.168.742 4.325 1.513c4.34 1.492 8.45 2.179 13.028 2.535L893 146l1 1c.16 1.89.314 3.782.443 5.675.827 11.433 3.217 22.35 5.993 33.439 4.335 17.477 6.192 33.373 1.787 50.995-3.634 12.04-10.792 21.769-19.706 30.49-12.64 11.672-28.18 16.462-44.517 20.401l1.677.64c14.767 5.663 26.895 11.138 38.323 22.36l2.16 2.086c7.258 7.524 11.941 16.877 14.715 26.914 3.519 16.693 1.589 31.789-3.544 47.876-3.18 9.563-6.799 18.901-10.664 28.205-2.785 6.848-4.504 13.602-5.667 20.919l-2.98.262c-8.418.823-16.498 2.191-24.707 4.238-19.083 4.696-39.937 7.515-59.286 2.473-13.555-4.355-24.59-10.68-34.457-21.04-10.772-12.294-15.725-26.382-19.113-42.171A40.4 40.4 0 0 1 734 371h-2l-.4 1.777c-2.672 9.902-8.968 19.566-15.6 27.223l-2.25 3.063c-5.849 6.858-14.067 11.722-22.402 14.906-17.293 5.327-35.31 5.494-52.922 1.63-10.585-2.616-20.878-6.358-30.801-10.849-7.047-3.168-14.027-4.537-21.625-5.75l-.227-3.207c-.83-10.058-2.498-19.71-4.773-29.543-4.563-19.82-7.883-39.33-2-59.25 3.74-10.855 10.848-20.047 19-28 10.121-8.41 22.245-13.966 35-17a94 94 0 0 1 10-1v-2l-1.625-.41c-15.888-4.364-29.314-11.429-41.187-22.965-9.095-9.431-13.173-19.688-16.942-32.11-1.299-5.267-1.502-10.61-1.621-16.015l-.08-2.026c-.048-15.57 6.063-30.892 11.321-45.302 3.74-10.306 6.455-20.33 8.134-31.172l3.285-.279c9.933-.88 19.53-2.625 29.278-4.721 21.134-4.528 43.677-8.632 64.437 0"/><path fill="#4A9BC3" d="M656.076 263.781q2.27 1.044 4.522 2.123c20.108 9.173 41.948 8.086 63.402 6.096l.25 3.625c.404 3.213.947 4.735 2.563 7.688 1.96 2.407 3.557 4.075 6.187 5.687 3.729 1.243 7.125 1.39 11 1 3.317-.908 3.317-.908 6-3 1.638-2.261 2.759-4.471 4-7l1-2c5.262 1.702 10.412 3.663 15.55 5.701 10.8 4.148 20.823 5.77 32.388 5.611l3.552.01c7.067-.043 13.824-.659 20.788-1.859 3.376-.574 6.311-.864 9.722-.463 1.903.886 3.803 1.786 5.64 2.8 2.84 1.444 5.742 2.49 8.735 3.575 10.597 4.034 18.553 9.699 26.625 17.625l2.16 2.086c7.258 7.524 11.941 16.877 14.715 26.914 3.519 16.693 1.589 31.789-3.544 47.876-3.18 9.563-6.799 18.901-10.664 28.205-2.785 6.848-4.504 13.602-5.667 20.919l-2.98.262c-8.418.823-16.498 2.191-24.707 4.238-19.083 4.696-39.937 7.515-59.286 2.473-13.555-4.355-24.59-10.68-34.457-21.04-10.772-12.294-15.725-26.382-19.113-42.171A40.4 40.4 0 0 1 734 371h-2l-.4 1.777c-2.672 9.902-8.968 19.566-15.6 27.223l-2.25 3.063c-5.849 6.858-14.067 11.722-22.402 14.906-17.293 5.327-35.31 5.494-52.922 1.63-10.585-2.616-20.878-6.358-30.801-10.849-7.047-3.168-14.027-4.537-21.625-5.75l-.227-3.207c-.83-10.058-2.498-19.71-4.773-29.543-4.563-19.82-7.883-39.33-2-59.25 3.74-10.855 10.848-20.047 19-28 13.316-11.064 29.093-15.826 45.71-19.484 8.232-1.29 8.232-1.29 12.366.265"/><path fill="#87BA64" d="m771 700 3 1a63 63 0 0 1 2.813 3.5c8.161 9.611 20.842 15.487 32.476 19.688 8.812 2.67 17.266 3.196 26.461 3.25l3.406.03c10.342-.107 19.708-1.988 28.907-6.796C870 720 870 720 871.938 720.156c2.74 1.121 4.741 2.757 7.062 4.594 6.551 4.898 13.919 8.639 22 10.25 2.244.086 4.491.115 6.737.11l4.158.002 2.217-.004c3.894-.004 7.788.022 11.683.042 4.946.025 9.892.04 14.839.025 4.005-.012 8.01.006 12.015.042q2.28.014 4.558-.006c11.792-.094 11.792-.094 16.662 2.055 4.297 2.793 7.868 6.258 11.397 9.957 2.386 2.445 4.955 4.643 7.543 6.87 3.415 2.972 6.747 6.034 10.09 9.087 1.968 1.857 1.968 1.857 4.101 2.82v2l1.672.719c2.896 1.593 5.123 3.57 7.578 5.781l2.703 2.406L1021 779v2l1.629.664c3.187 1.796 5.674 4.21 8.308 6.711l3.497 3.273 1.796 1.69c2.74 2.572 5.506 5.117 8.27 7.662l3.25 3 1.625 1.5 17.91 16.535q8.58 7.93 17.196 15.82Q1090 842.917 1095.5 848c11.566 10.69 11.566 10.69 23.25 21.25 4.48 4.017 8.867 8.128 13.25 12.25 10.074 9.668 10.074 9.668 20.77 18.613L1155 902v2c-78.836 8.962-170.68 3.517-244.248-27.786a205 205 0 0 1-10.564-5.027l-2.03-1.03q-2.07-1.055-4.137-2.117a753 753 0 0 0-3.957-2.021C867.73 854.684 848.648 839.677 831 822l-2.219-2.078C817.26 808.952 807.801 795.828 800 782l-1.076-1.903C786.375 757.707 771 726.019 771 700"/><path fill="#4D8E4B" d="m753 739 3 1c1.133 2.547 1.133 2.547 2.125 5.75l1.008 3.172C760 752 760 752 760.555 754.828L761 757l1 1c.04 1.666.043 3.334 0 5h2l1.102 2.93c2.734 7.126 5.554 13.72 9.796 20.117C776 788 776 788 776 791h2a133 133 0 0 1 4 6.688c4.05 6.958 8.537 13.303 13.596 19.568a667 667 0 0 1 4.54 5.724c6.505 8.2 13.256 15.823 20.864 23.02-1.576 5.264-4.963 8.938-8.437 13.063l-1.897 2.272C803 870.462 795.278 879.463 786 887l-1.561 1.295C745.12 920.905 696.831 940.18 647 950l-3.461.685c-9.306 1.81-18.636 3.284-28.028 4.568-2.247.308-4.492.624-6.738.94a555 555 0 0 1-52.5 4.812c-2.707.12-5.413.25-8.119.382-12.391.577-24.75.712-37.154.613.607-3.063 1.112-4.136 3.188-6.664a296 296 0 0 1 2.812-2.961l3.047-3.242 1.53-1.616c1.929-2.056 3.801-4.16 5.673-6.267 4.017-4.48 8.127-8.867 12.25-13.25a888 888 0 0 0 16.5-18 1067 1067 0 0 1 17.22-18.827 340 340 0 0 0 8.217-9.11c3.547-4.076 7.226-8.014 10.938-11.938 4.877-5.178 9.709-10.387 14.445-15.695a904 904 0 0 1 7.805-8.555c2.938-3.194 5.856-6.399 8.688-9.687 4.017-4.638 8.239-9.085 12.435-13.56a588 588 0 0 0 9.69-10.566c3.95-4.422 8-8.744 12.062-13.062 7.397-7.865 14.676-15.813 21.7-24.016L681 773l2.626-2.98c2.435-2.418 3.705-3.145 7.065-4.42q2.036-.484 4.086-.9l2.211-.506c2.313-.523 4.63-1.015 6.95-1.506q2.327-.522 4.654-1.05c16.909-3.784 16.909-3.784 24.685-3.736l2.803.01 2.857.025 2.94.014q3.561.018 7.123.049.722-3.062 1.438-6.125l.808-3.445c.69-3.135 1.258-6.26 1.754-9.43"/><path fill="#94D0E0" d="M859 32h3c1.404 1.41 1.404 1.41 2.863 3.418l1.669 2.273 1.78 2.496 1.85 2.552c15.569 21.66 15.569 21.66 21.545 32.3L893 77c3.685 1.228 6.114 1.382 10 1 1.894-1.035 1.894-1.035 3.75-2.375 4.82-3.254 9.487-4.2 15.25-4.625a2509 2509 0 0 1 7.625.5c3.818.184 3.818.184 7.375-.5 2.885-2.194 4.773-4.488 6.941-7.383C946.99 59.743 950.75 57.405 955 55l1.887-1.156c2.93-1.17 4.982-1.236 8.113-.844 7.647 5.202 12.114 13.001 16.309 20.996C983.217 77.41 983.217 77.41 986 80c1.89.832 3.812 1.597 5.75 2.313 6.458 2.6 10.764 5.62 15.125 11 2.492 5.953 2.282 12.275 1.502 18.583l-.314 2.291c-.648 4.977-1.2 9.78-1.063 14.813 3.35-.352 5.12-1.08 7.945-2.996q1.59-1.22 3.18-2.442c4.783-3.44 8.977-5.962 14.914-6.609 11.577.183 23.224 4.02 34.36 6.889A287 287 0 0 0 1086 128c-.71 8.594-2.04 17.046-3.474 25.543-.404 2.412-.791 4.826-1.178 7.24q-.388 2.31-.778 4.62l-.341 2.177c-.86 4.931-.86 4.931-2.5 7.108-1.729 1.312-1.729 1.312-3.82 1.69l-2.437.007-2.773.03-2.992-.009-3.09.033c-3.269.034-6.536.05-9.804.061q-6.428.024-12.856.094l-2.962-.01c-6.032.066-10.492.902-15.995 3.416-3.08 1.982-3.08 1.982-5.812 4.188A96 96 0 0 1 1010 188h-3c-4.354-8.35-5.5-14.922-5.176-24.14L1002 161h-2l-.375 2.375L999 166c-2 2-2 2-4.125 2.625L993 169l7 2-1 2-2.195-.473c-4.03-.811-7.875-1.527-11.992-1.527-4.211 1.497-7.398 4.166-10.813 7 2.806 6.126 6.122 11.033 10.438 16.188l1.697 2.076c2.499 3.03 4.877 5.747 7.838 8.35L996 207c-.288 4.696-1.82 7.885-4.246 11.86l-2.025 3.356-1.073 1.75c-1.844 3.008-3.658 6.034-5.476 9.057l-1.094 1.813c-3.894 6.47-7.545 13.063-11.168 19.687L969 258l-1.395 2.945L966 263c-3.063.593-5.878.5-8.992.469-3.153.325-3.153.325-5.715 2.543-2.798 3.647-3.927 6.908-5.106 11.3l-.654 2.186c-1.037 3.672-1.623 6.838-1.44 10.658C944 294 944 294 942.427 297.23l-2.114 2.957-2.074 2.981c-3.865 4.89-7.91 8.59-13.238 11.832-2.84.947-4.791 1.195-7.75 1.25l-2.484.078c-3.634-.431-6.677-1.397-9.766-3.328-2.15-2.062-3.878-4.343-5.625-6.75l-1.367-1.805c-3.082-4.09-6.042-8.27-9.008-12.445 1.47-3.402 3.373-5.618 5.992-8.223l2.387-2.38 2.496-2.46 2.473-2.47c7.187-7.135 7.187-7.135 10.652-9.467 6.34-.217 12.788 3.506 18.246 6.336 3.578 2.162 6.043 4.5 8.754 7.664 2.703-6.892 4.871-13.912 7-21l-1.687-.297c-5.656-1.108-10.38-2.719-15.313-5.703l-2.535-1.5c-2.51-1.676-4.522-3.188-6.465-5.5-.629-3.244.088-5.865 1-9 3.225-12.898 3.301-24.938 1.411-38.03l-.329-2.61-.337-2.33L923 193c2.596-2.74 5.661-3.7 9.228-4.762l2.03-.578 2.13-.63c2.244-.664 4.49-1.317 6.737-1.968q4.413-1.285 8.82-2.59l2.132-.63A141 141 0 0 0 970 176l-2.598-1.574a4060 4060 0 0 1-5.271-3.215c-3.144-1.934-6.189-3.92-9.131-6.149-3.03-2.083-4.422-2.688-8-3.062-2.936.53-2.936.53-6 1.438-6.76 1.7-13.064 1.869-20 1.562-2.339-8.59-3.423-16.608-3.79-25.469-.185-4.353-.185-4.353-1.21-8.531-3.599-2.875-7.361-3.743-11.812-4.687l-3.52-.762L896 125c.483-13.48 2.018-26.663 4-40l-9-2-1.062 3.75C886.58 96.724 880.687 105.816 873 113c-3.125 2.125-3.125 2.125-6 3-3.96-.092-7.227-1.463-10.875-2.875-8.761-3.291-18.142-4.808-27.437-5.687C825 107 825 107 822 105c-1.259-2.797-1.259-2.797-2.48-6.32l-.66-1.875a854 854 0 0 1-2.048-5.93l-1.404-4.02C814.26 83.575 813.13 80.288 812 77l-17 1 1 8.25c.845 7.277 1.259 14.418 1 21.75-3.832 1.632-7.662 2.753-11.687 3.813-12.522 3.58-22.804 9.974-32.192 18.992L752 132l-3-1c-1.508-2.371-1.508-2.371-3.125-5.437C739.202 113.744 729.332 104.36 718 97q.573-6.004 1.172-12.006.201-2.037.395-4.076c.188-1.964.385-3.927.581-5.89.116-1.179.23-2.357.35-3.571.53-3.656 1.412-6.933 2.502-10.457l2.532-.335 13.594-1.805 5.944-.79 1.99-.262c3.313-.44 6.62-.906 9.922-1.42l3.772-.58 3.37-.537C767 55 767 55 770.811 55.937c3.434 2.222 6.597 4.644 9.774 7.215C785.06 66.577 789.96 69.48 795 72a109 109 0 0 0 6.313-.312c1.13-.08 2.26-.158 3.425-.239 3.166-.436 5.456-.935 8.262-2.449 1.727-1.966 1.727-1.966 3.063-4.312 3.759-6.134 7.474-10.41 13.562-14.313l1.946-1.273c7.455-4.84 15.059-9.443 22.674-14.024 1.609-.988 3.184-2.03 4.755-3.078"/><path fill="#337BB0" d="m1018.197 449.746 2.09-.01c2.293-.007 4.586-.001 6.879.005l4.954-.01c4.473-.01 8.946-.006 13.42 0 4.689.005 9.379 0 14.068-.002q11.816-.006 23.63.01 13.639.015 27.278-.003 11.727-.014 23.455-.006 6.997.007 13.993-.003 6.582-.007 13.164.01 2.409.004 4.817-.002c18.688-.047 18.688-.047 26.242 3.953 4.303 3.537 7.77 7.131 10.188 12.187 1 5.004 1.326 9.477.008 14.457-2.024 5.255-4.94 8.62-9.188 12.258-3.238 2.08-6.415 3.248-10.277 3.6-2.48.081-4.955.1-7.437.097l-2.85.02q-3.055.02-6.109.029c-3.23.008-6.458.028-9.688.052-6.861.048-13.723.081-20.584.112-7.94.036-15.88.078-23.821.136-3.17.02-6.339.028-9.508.036l-5.885.04-2.64-.002c-8.14.081-16.383 1.023-23.587 5.067-3.438 2.324-5.774 4.568-7.809 8.223-.9 2.643-1.73 5.258-2.5 7.938-1.559 5.402-2.963 10.242-6.719 14.582-3.524 2.928-7.342 4.474-11.781 5.48-8.037 1.006-16.042 1.15-24.131 1.158l-5.825.023q-3.096.011-6.193.018-6.482.018-12.964.053c-12.281.062-24.562.116-36.843.15q-10.2.027-20.401.087c-3.59.021-7.178.037-10.767.04-4.001.002-8.002.027-12.003.054l-3.562-.009c-6.562.067-12.312.618-18.311 3.426-6.125 3.769-9.102 9.09-12.492 15.316l-1.883 3.559q-.99 1.83-1.982 3.66-1.95 3.597-3.884 7.202c-2.22 4.119-4.511 8.194-6.822 12.263l-2.058 3.688a229 229 0 0 1-3.79 6.437c-2.913 4.746-2.913 4.746-4.37 10.043.391 5.06 2.638 9.587 5.281 13.832 2.992 4.168 2.992 4.168 6.09 8.257 1.18 1.595 1.18 1.595 2.91 4.743-.128 3.963-1.152 6.766-3.188 10.125-7.115 12.292-12.024 22.92-12.125 37.25-.005.774-.01 1.547-.017 2.344.055 4.266.58 7.337 2.33 11.281v4h2l-1 3c-8.81 3.464-18.678 3.845-28 3-10.727-1.903-19.996-5.453-28.688-12.035-7.641-6.448-12.08-13.192-15.503-22.56-2.969-8.81-3.972-17.17-2.809-26.405 1.127-4.332 2.92-8.046 5-12l2.102-4.156c6.067-11.862 12.671-23.435 19.276-35.004q2.317-4.06 4.626-8.125a2617 2617 0 0 1 15.746-27.277 3138 3138 0 0 0 15.5-26.813l1.026-1.794c4.644-8.129 9.244-16.28 13.72-24.504 3.748-6.84 3.748-6.84 6.004-9.327 2.015-.5 2.015-.5 4.362-.499l2.702-.029 2.956.03 3.12-.017q3.36-.015 6.718-.001c3.548.012 7.096 0 10.644-.016 6.26-.027 12.52-.033 18.78-.031 10 .002 19.998-.012 29.997-.056 3.489-.01 6.976-.001 10.464.009q3.23-.009 6.46-.021l2.92.023c7.25-.054 13.378-1.37 19.69-5.017 3.812-4.14 5.603-8.907 6.89-14.348l.672-3.09c1.167-4.95 2.747-8.43 6.023-12.32 3.284-3.315 6.434-5.226 10.844-6.703 3.806-.926 7.045-1.166 10.955-1.168"/><path fill="#11243D" d="M1099.688 1177.188c5.321 3.165 10.076 7.31 14.312 11.812v2h2v-19h37c.068 18.386.123 36.772.155 55.157.016 8.539.037 17.077.071 25.615q.046 11.172.056 22.345.004 5.907.035 11.814.03 5.58.022 11.157c.002 1.99.018 3.98.034 5.97-.045 13.55-2.576 25.638-8.373 37.942l-.93 2.168c-2.67 5.921-6.613 11.125-11.07 15.832h-2v2c-1.875 1.625-1.875 1.625-4 3h-2v2h-3v2c-18.2 9.681-36.48 13.841-57.05 13.285-20.084-.938-38.358-6.832-55.95-16.285a388 388 0 0 0-4-2v-2l-2.437-.75L1000 1360c-.883-1.7-.883-1.7-1-4 1.441-2.848 1.441-2.848 3.563-6.062q1.115-1.725 2.222-3.454l1.13-1.752c2.58-4.117 4.814-8.44 7.085-12.732h2v2c.69.26 1.38.52 2.09.79 3.262 1.357 6.339 2.952 9.472 4.585 13.866 6.994 28.33 10.302 43.934 9.8L1073 1349l3.223-.207c9.343-.942 16.944-3.678 24.777-8.793 5.013-4.274 8.836-9.29 11.262-15.434 2.74-9.523 3.117-19.722 3.738-29.566l-1.504 1.32q-2.14 1.876-4.289 3.743a170 170 0 0 0-3.945 3.562c-7.238 6.634-15.874 10.052-25.274 12.59-12.207 2.68-26.147 2.895-38.172-.598a316 316 0 0 1-5.254-1.742l-2.779-.939c-6.978-2.453-12.938-5.337-18.783-9.936l-2.969-2.324c-3.113-2.624-5.647-5.62-8.093-8.863l-1.314-1.74c-7.798-10.547-12.384-23.16-14.624-36.073-1.017-15.6-.368-30.07 6.555-44.309 6.741-12.554 14.38-21.979 26.445-29.691 23.36-13.737 53.317-15.255 77.688-2.812M610 1114q7.635-.111 15.271-.165 2.598-.022 5.197-.061c2.487-.037 4.974-.054 7.462-.067l2.355-.047c2.183 0 2.183 0 5.715.34 2 3 2 3 2.249 6.568q.014 2.284-.002 4.569l.008 2.542c.005 2.821-.003 5.643-.012 8.464q.001 3.028.006 6.056c.005 5.489-.003 10.978-.013 16.468-.009 5.734-.007 11.469-.007 17.203q-.002 14.443-.023 28.887-.023 16.723-.02 33.447 0 16.06-.013 32.12-.006 6.849-.006 13.697a9518 9518 0 0 1-.017 16.108q-.004 2.966-.004 5.93 0 4.029-.012 8.058l.004 2.402A160 160 0 0 1 648 1322l-1 1c-2.739.089-5.453.115-8.191.098l-2.485-.005c-2.629-.005-5.258-.018-7.886-.03q-2.667-.008-5.334-.014c-4.368-.01-8.736-.03-13.104-.049v-17l-3.375 3.063c-9.46 8.186-18.706 13.861-31.145 16.464-2.508.312-4.952.42-7.48.473l-3.902.152c-14.993.426-28.618-2.59-42.098-9.152-10.84-6.479-20.025-15.38-26.477-26.238-8.3-15.049-11.131-29.433-10.998-46.511.367-13.342 3.135-26.386 9.475-38.251 2.488-3.819 5.165-7.433 8-11l1.95-2.547c7.706-9.219 18.109-14.913 29.05-19.453 13.43-4.81 28.148-5.32 42.125-2.812 10.73 2.106 20.191 6.148 28.875 12.812 2.563 2.25 2.563 2.25 4 4v2h2l-.214-2.487c-.96-12.821-.938-25.63-.916-38.481.005-3.881 0-7.762-.007-11.643q0-3.705.004-7.409l-.006-3.512.01-3.24.002-2.849C609 1117 609 1117 610 1114"/><path fill="#4D8E4B" d="m580 723 3 1a129 129 0 0 1 4.563 6.438c8.62 12.423 19.248 22.275 33 28.796 16.305 7.344 31.706 9.307 49.437 9.766v3a110 110 0 0 1-5 5 666 666 0 0 0-4.875 5.313c-4.538 4.98-9.133 9.905-13.75 14.812a826 826 0 0 0-14.16 15.41c-5.935 6.604-11.989 13.102-18.07 19.57l-1.992 2.12q-1.905 2.022-3.814 4.043a399 399 0 0 0-10.703 11.86c-2.274 2.602-4.606 5.143-6.948 7.684q-1.426 1.549-2.848 3.098l-1.43 1.555c-7.444 8.1-7.444 8.1-14.722 16.347-3.867 4.455-7.908 8.745-11.932 13.057-2.78 2.984-5.534 5.976-8.193 9.068-3.97 4.606-8.157 9.01-12.326 13.434a329 329 0 0 0-8.706 9.598c-4.175 4.804-8.55 9.41-12.926 14.031a304 304 0 0 0-11.044 12.336C505 952 505 952 502 954c-1.18-7.464-1.164-14.876-1.168-22.418l-.01-4.264q-.009-4.477-.007-8.954 0-4.495-.02-8.99C500.55 855.743 505.36 801.357 528 752c.29-.692.58-1.384.877-2.097.893-1.891.893-1.891 3.123-4.903 2.87-1.076 5.04-1.667 8-2.125q2.306-.453 4.61-.93l2.275-.464c11-2.503 22.337-9.077 30.74-16.543.784-.64 1.567-1.28 2.375-1.938"/><path fill="#11243D" d="M212.355 1177.594c8.973 4.77 15.799 11.95 21.395 20.343 5.162 8.699 7.25 19.186 7.49 29.22q.009 2.682-.013 5.363v2.99c0 3.22-.016 6.439-.032 9.658l-.008 6.746q-.014 8.83-.05 17.661c-.02 6.02-.03 12.04-.04 18.06q-.032 17.682-.097 35.365c-3.542.96-6.694 1.13-10.375 1.133l-3.734.004-3.891-.012-3.89.012-3.735-.004-3.414-.004C209 1324 209 1324 205 1323l-1-14-3 1-1 3c-5.688 5.505-13.828 9.056-21.344 11.371-14.223 3.368-29.536 3.753-43.656-.371-9.689-3.374-18.074-7.709-25.25-15.125-4.882-5.759-7.86-12.504-9.363-19.887-1.211-9.356-.467-18.056 2.613-26.988 2.737-6.437 6.534-11.618 12-16 9.939-6.59 20.491-9.46 32.347-10.212 3.577-.111 7.152-.168 10.731-.202l3.917-.059c3.393-.05 6.786-.09 10.18-.128 3.479-.04 6.959-.091 10.438-.141q10.193-.142 20.387-.258-.44-3.36-.898-6.719l-.506-3.779c-.754-4.433-1.81-7.952-4.596-11.502-5.045-4.998-11.23-8.03-18-10-4.43-.622-8.78-.713-13.25-.687l-3.688.006c-11.648.272-22.445 2.873-33.062 7.681l-2.785 1.793C124 1213 124 1213 121.41 1213.16L119 1212a53 53 0 0 1-3.562-7.562q-.893-2.197-1.79-4.391l-.852-2.127c-.958-2.312-2.062-4.522-3.234-6.733C108 1188 108 1188 108 1185c10.768-5.03 21.457-9.132 33-12l3.867-.973c22.2-4.985 46.642-3.787 67.488 5.567"/><path fill="#499AC2" d="M553 190c2.92 1.309 5.053 2.438 7 5a94 94 0 0 1 1.313 7.625c2.55 16.197 8.449 31.175 18.82 44.016a118 118 0 0 0 3.652 3.941L585 252v2l1.75.75c2.58 1.433 4.311 3.034 6.25 5.25v2a72 72 0 0 1-4.375 3c-12.99 8.916-20.593 20.56-27.52 34.488-2.817 6.401-4.681 12.465-5.73 19.387l-.378 2.375A227 227 0 0 0 553 338l-1.875-.5c-5.402-.864-10.757-.993-16.125.125L533 339c-1.911 4.55-2.353 8.65-2.437 13.563l-.122 3.878c.277 3.681.277 3.681 2.801 6.36 5.89 4.697 11.82 7.11 19.196 8.512 3.05.703 3.05.703 5.562 1.687 1.577 1.873 2.06 3.288 2.621 5.66L561 381l.598 2.746A191 191 0 0 1 563 391c-4.672-.822-8.933-2.343-13.379-3.965-9.262-2.648-18.46-3.396-28.058-3.348l-3.393.009c-12.975.16-25.62 1.92-38.234 4.911-2.34.475-4.555.547-6.936.393 1.322-2.84 2.805-5.178 4.785-7.602l1.608-1.984 1.67-2.039q1.644-2.017 3.285-4.04l1.469-1.794c1.265-1.547 1.265-1.547 2.183-3.541l-1.945-.321c-7.502-1.295-14.825-3.035-22.18-4.991l-3.379-.858c-6.636-1.763-12.892-3.745-18.496-7.83-8.651-9.298-10.677-23.299-13.436-35.274l-.814-3.601-.783-3.457-.733-3.348-.649-2.96c-.772-4.433-1.185-8.88-1.585-13.36l3.744-.978a48411 48411 0 0 0 19.784-5.171l8.6-2.25 2.675-.697c3.735-.978 7.46-1.97 11.166-3.05 4.737-1.335 9.315-1.439 14.136-.4q1.902.511 3.778 1.108c3.242.67 5.804.803 9.117.438 2.455-1.497 4.37-3.39 6.375-5.437l1.613-1.565A298 298 0 0 0 509 270l1-1c.397-2.65.721-5.275 1-7.937l.274-2.499c.52-5.15.802-10.26.902-15.435l.076-3.518q.06-3.444.055-6.888c.052-2.982.168-5.787.693-8.723 2.188-2.957 2.188-2.957 5-5l2.762-2.395 2.926-2.417 1.583-1.313a577 577 0 0 1 9.854-7.937c4.42-3.506 8.598-7.233 12.746-11.055C550 192 550 192 553 190"/><path fill="#88BB65" d="m995.809 573.504 2.803-.005q2.928.003 5.857.034c2.93.03 5.857.021 8.787.008 22.746.026 43.81 4.209 63.744 15.459 7.022 4.1 13.976 8.342 20.762 12.824 8.947 5.788 19.698 9.646 30.238 11.176 2.077.09 4.156.133 6.235.138l3.73.017 4.052.003q2.149.007 4.298.015 4.619.017 9.238.026c4.876.01 9.751.031 14.627.053 13.864.062 27.727.116 41.59.15a7915 7915 0 0 1 22.985.087c4.05.021 8.098.037 12.147.04q5.718.002 11.436.044 2.088.01 4.177.005c7.877-.016 15.166.257 22.485 3.422 3.305 2.009 5.693 4.668 8.313 7.5 2.587 5.366 2.864 10.59 2.687 16.5-.806 4.805-2.511 8.26-5.187 12.313-3.33 3.18-6.466 5.247-10.813 6.687-4.568.597-9.101.605-13.703.61q-2.058.022-4.117.05c-3.705.044-7.41.064-11.115.079-3.106.015-6.213.043-9.32.072-8.12.076-16.24.123-24.36.157q-8.486.036-16.968.094c-8.394.056-16.788.092-25.182.118q-3.214.011-6.43.03c-13.233.063-26.423.037-39.618-1.081l-2.708-.23c-21.161-2.06-38.618-10.518-56.358-21.704-12.99-8.16-27.477-16.506-43.18-17.299a478 478 0 0 0-7.214-.107l-5.438-.086q-4.249-.063-8.498-.104c-2.751-.028-5.501-.074-8.252-.122l-2.535-.01c-5.629-.117-9.846-1.182-15.004-3.467-3.927-2.808-6.54-6.173-8.875-10.375-1.577-5.082-2.64-9.641-1.723-14.953 1.356-4.716 3.475-8.321 6.61-12.067 6.186-4.995 11.988-6.202 19.797-6.101"/><path fill="#6CA556" d="m915.325 654.498 3.112-.016c3.393-.013 6.784.004 10.176.022q3.558 0 7.117-.005 7.466 0 14.931.034c6.337.029 12.673.026 19.01.013 4.904-.007 9.81.001 14.714.014q3.5.006 7 0c23.332-.02 44.055 2.652 64.638 14.287 4.82 2.796 9.517 5.758 14.195 8.784 14.557 9.414 29.29 16.623 46.782 18.369q3.77.14 7.542.158l2.143.015q2.28.016 4.56.026 3.621.02 7.243.053c6.86.062 13.72.116 20.58.15 4.212.02 8.422.056 12.633.1q2.391.021 4.782.026c8.475.019 16.588.041 24.517 3.472 3.96 2.49 6.99 5.763 9.938 9.375 1.86 4.598 2.332 9.066 1.812 13.996-.941 4.984-2.494 8.65-5.75 12.629-3.77 3.77-7.093 5.784-12.153 7.389-6.043 1.297-12.254 1.016-18.406.974q-2.27 0-4.54.002-4.749 0-9.498-.029c-4.004-.022-8.008-.023-12.012-.017-31.638.038-60.522-1.821-88.551-17.859-4.166-2.426-8.258-4.958-12.34-7.523-11.91-7.366-23.644-13.284-37.5-15.937l-2.482-.505c-9.64-1.734-19.133-1.776-28.902-1.77-3.044.002-6.088-.012-9.132-.028q-12.968-.068-25.936-.078c-5.313-.005-10.625-.03-15.937-.065a807 807 0 0 0-6.045-.007c-2.814.007-5.627-.01-8.44-.033l-2.498.025c-4.064-.058-7-.465-10.58-2.469-4.435-3.012-7.523-6.261-10.087-10.984-1.8-4.22-2.486-8.27-2.313-12.852.612-3.886 2.169-6.99 4.352-10.234 6.46-7.48 11.732-9.598 21.325-9.502"/><path fill="#11243D" d="M412 1174.813c10.075 5.062 17.46 11.644 23.688 21.062 4.518 7.721 6.956 15.524 8.044 24.372l.37 2.876c1.223 10.313 1.278 20.562 1.191 30.932q-.009 3.012-.013 6.026c-.011 5.205-.04 10.41-.074 15.614-.031 5.344-.044 10.688-.06 16.032A10259 10259 0 0 1 445 1323q-8.09.25-16.18.482-2.755.08-5.51.166-3.95.122-7.9.23l-2.503.083c-1.968.052-3.938.05-5.907.039l-1-1c-.11-2.706-.154-5.387-.158-8.093l-.015-2.573q-.016-2.777-.026-5.555-.019-4.41-.053-8.82a7474 7474 0 0 1-.15-25.084 3376 3376 0 0 0-.1-15.331q-.021-2.912-.026-5.823c.233-16.747.233-16.747-4.953-32.435-1.96-3.16-3.702-5.681-6.71-7.907L392 1210v-2l-2.312-.437C387 1207 387 1207 384 1206v-2c-3.312-.088-6.624-.14-9.937-.187l-2.807-.077c-8.127-.085-14.864 1.67-22.006 5.576-4.075 2.333-6.413 4.992-9.25 8.688h-2l-.312 1.625c-.688 2.375-.688 2.375-2.125 5.063-3.212 6.808-3.861 13.782-3.882 21.228l-.03 2.546c-.03 2.743-.048 5.486-.065 8.23q-.028 2.872-.059 5.745c-.05 5.016-.09 10.032-.128 15.047-.047 6.032-.109 12.063-.168 18.095-.088 9.14-.158 18.28-.231 27.421h-38v-151h38v17l5-5c8.986-7.467 19.604-11.72 31-14 15.15-2.51 30.887-1.41 45 4.813M916.156 1175.535c4.575 2.357 8.97 5.062 12.844 8.465v2l3 1c7.49 9.229 12.31 19.63 14.575 31.238.681 4.428.687 8.79.652 13.26v3.02c0 3.257-.016 6.514-.032 9.771l-.008 6.818q-.014 8.931-.05 17.863c-.02 6.087-.03 12.174-.04 18.26-.02 11.924-.056 23.847-.097 35.77h-38l-.113-18.574q-.045-5.858-.096-11.717c-.054-6.186-.105-12.372-.137-18.558q-.041-7.489-.117-14.978-.025-2.842-.035-5.686c.26-17.198.26-17.198-5.07-33.267a86 86 0 0 0-3.127-4.415C899 1214 899 1214 898 1211a88 88 0 0 0-5-2l-3.25-2c-5.448-3.154-11.269-4.072-17.5-4.375-6.345.139-12.432 1.904-18.25 4.375a189 189 0 0 0-5 4h-2v2h-2l-.844 1.723c-1.546 3.045-3.245 5.995-4.937 8.96-6.296 11.966-5.544 25.92-5.633 39.087q-.028 2.662-.059 5.325c-.05 4.627-.09 9.255-.128 13.883-.04 4.74-.091 9.48-.141 14.22q-.143 13.9-.258 27.802-7.663.037-15.326.055-2.609.008-5.218.02-3.741.017-7.483.023l-2.37.015c-1.869 0-3.736-.051-5.603-.113l-1-1a116 116 0 0 1-.12-5.853l-.004-3.854.01-4.268v-4.463q.001-6.078.013-12.155c.006-4.23.006-8.459.008-12.688q.005-12.023.021-24.044.015-13.683.022-27.366.016-28.155.05-56.309h37v18l5-5c8.901-7.425 18.679-12.387 30-15 16.659-2.395 32.572-1.356 48.156 5.535"/><path fill="#629E51" d="M1726.313 1175.734c7.518 3.491 14.61 7.579 20.687 13.266l2.258 2.098c8.245 8.37 13.506 18.813 16.666 30.069 2.788 10.963 3.81 22.532 3.076 33.833l-1 1a80 80 0 0 1-4.828.158l-3.166.03-3.502.017-3.666.03q-4.989.04-9.979.068-5.208.035-10.418.076-9.87.074-19.74.138-11.235.076-22.47.16-23.115.17-46.231.323.912 3.559 1.84 7.113l.513 2.011c2.646 10.092 7.2 18.224 14.343 25.781 6.304 6.33 12.637 9.753 21.117 12.408 13.977 3.603 27.644 3.108 41.562-.563 8.114-2.714 15.624-7.664 21.625-13.75l2-3c3.75 1.515 5.767 3.709 8.313 6.813l2.175 2.582L1759 1299c-.023 2.578-.023 2.578-1 5-6.068 7.173-14.496 12.366-23.215 15.633-16.88 6.006-33.693 8.392-51.473 5.242-14.556-3.356-26.24-9.242-37.652-18.844-5.306-4.97-9.04-10.764-12.66-17.031l-1.148-1.918c-4.999-9.057-8.627-20.727-8.852-31.082l-.117-3.863c-.343-16.465 2.343-31.048 9.867-45.887 3.332-5.804 7.542-10.526 12.25-15.25l2.086-2.156c8.877-8.58 19.926-12.931 31.66-16.117 15.153-3.384 33.082-3.183 47.566 3.007"/><path fill="#6CA556" d="m771 700 3 1a63 63 0 0 1 2.813 3.5c8.161 9.611 20.842 15.487 32.476 19.688 8.812 2.67 17.266 3.196 26.461 3.25l3.406.03c10.342-.107 19.708-1.988 28.907-6.796C870 720 870 720 871.938 720.156c2.74 1.121 4.741 2.757 7.062 4.594 6.551 4.898 13.919 8.639 22 10.25 2.244.086 4.491.115 6.737.11l4.158.002 2.217-.004c3.894-.004 7.788.022 11.683.042 4.946.025 9.892.04 14.839.025 4.005-.012 8.01.006 12.015.042q2.28.014 4.558-.006c11.792-.094 11.792-.094 16.662 2.055 4.297 2.793 7.868 6.258 11.397 9.957 2.386 2.445 4.955 4.643 7.543 6.87 3.415 2.972 6.747 6.034 10.09 9.087 1.968 1.857 1.968 1.857 4.101 2.82v2l1.75.75c2.55 1.417 4.268 3.126 6.25 5.25l-1 2-3-2-2.25 2-2.75 2h-4v2c-5.251 2.21-9.41 2.053-14.937 1.563-5.576-.47-10.542-.57-16.063.437l.563 3.938c.316 2.214.316 2.214.437 4.062l-1 1c-2.426.131-4.525.128-6.879-.508-2.332-.541-4.356-.556-6.746-.492-4.154.11-4.154.11-6.375-1a66 66 0 0 0-4.281-.062l-2.551.023-2.668.039q-2.61.038-5.219.063l-2.342.035C932 789 932 789 930 788c-2.553.094-5.078.247-7.625.438-7.774.507-15.523.678-23.312.687l-3.177.013-2.976-.005-2.652-.004C888 789 888 789 885 788c-2.018.004-4.036.014-6.053.065-10.943.267-21.23-.935-31.947-3.065l-2.179-.422c-17.259-3.425-33.74-9.465-48.821-18.578l-1.836-1.06c-2.596-1.635-4.631-3.134-6.336-5.713-1.061-2.166-1.932-4.339-2.765-6.602l-.985-2.558C778.168 734.002 774.13 716.8 771 700"/><path fill="#337BB0" d="M936.99 366.27c2.506-.265 4.904-.271 7.423-.194l2.862-.008c3.143 0 6.282.058 9.424.116q3.341.018 6.682.027c5.908.025 11.814.098 17.722.181 5.807.073 11.615.1 17.422.13 10.358.06 20.715.182 31.072.338q10.56.153 21.121.205c4.608.028 9.215.075 13.822.127q3.252.03 6.503.035c18.7.036 18.7.036 25.124 3.103 4.04 2.448 7.322 5.666 9.833 9.67 2.126 4.487 2.416 8.237 2.316 13.148-.495 4.468-1.96 8.046-4.316 11.852-3.216 3.893-6.367 6.028-11 8-2.912.874-5.51 1.126-8.545 1.131l-2.748.012-2.992-.001-3.17.01q-3.409.011-6.818.017-5.405.012-10.81.041c-10.246.052-20.491.1-30.737.116-6.268.01-12.536.04-18.804.081q-3.575.02-7.149.015c-3.346-.002-6.69.02-10.036.048l-2.95-.02c-8.073.109-15.137 2.141-22.116 6.237-5.558 6.05-8.147 13.65-10.816 21.297-1.737 4.001-3.54 6.695-7.067 9.33-4.423 2.754-7.989 4.033-13.22 4.254q-3.357-.002-6.713-.08l-3.594-.021c-3.76-.028-7.518-.09-11.278-.155q-3.84-.037-7.681-.068-9.379-.084-18.756-.244c1.238-4.004 2.696-7.534 4.766-11.176l1.676-2.969 1.808-3.168 3.824-6.765 1.978-3.486a3904 3904 0 0 0 9.01-15.999l1.736-3.09c4.709-8.412 9.31-16.88 13.853-25.382l1.51-2.813 1.3-2.437L930 375l.913-1.983c2.863-5.568 2.863-5.568 6.077-6.747M984 283c2.608-.096 5.19-.127 7.798-.116h2.505q4.19.001 8.378.015l5.982.005c6.57.006 13.139.023 19.708.041l6.78.018q14.103.035 28.208.087c13.48.05 26.958.084 40.437.093q14.211.014 28.421.077c5.659.024 11.317.04 16.976.036q7.995-.005 15.988.054 2.928.015 5.856.003c16.554-.058 16.554-.058 23.016 3.034 5.012 2.96 7.747 6.854 10.947 11.653 1.189 5.847 1.54 12.001-.023 17.797-2.006 4.525-5.053 8.22-8.977 11.203-6.247 2.78-12.047 3.429-18.814 3.36l-2.87.009c-3.15.004-6.3-.012-9.451-.028h-6.802c-6.14.002-12.28-.016-18.42-.037-6.421-.019-12.844-.02-19.266-.024q-16.16-.013-32.323-.054a24897 24897 0 0 0-45.661-.075A67878 67878 0 0 1 957 330a8439 8439 0 0 1 4.505-9.042c1.552-3.07 3.189-6.064 4.933-9.028l1.773-3.028 1.789-3.027 1.79-3.05q2.595-4.418 5.21-8.825l1.738-2.933 1.637-2.747 1.46-2.452C983 284 983 284 984 283"/><path fill="#6CA556" d="M988 736c20.584.499 38.673 9.752 56 20q3.257 2.019 6.5 4.063c19.427 12.01 38.757 18.353 61.68 19.155 6.362.169 12.723.242 19.086.314 2.723.033 5.445.078 8.168.124l2.524.016c2.017.036 4.031.173 6.042.328l2 2c.61 2.375 1.11 4.694 1.55 7.102.21 1.097.21 1.097.422 2.218.458 2.433.9 4.869 1.34 7.305l.465 2.54c5.744 31.557 11.137 64.686 10.223 96.835-4.009-1.634-6.847-4.44-9.937-7.375l-3.512-3.29-1.799-1.691a825 825 0 0 0-6.443-5.962c-6.339-5.822-12.609-11.715-18.87-17.619a3624 3624 0 0 0-15.763-14.762 2708 2708 0 0 1-12.266-11.516c-5.883-5.552-11.784-11.068-17.824-16.45-3.4-3.07-6.742-6.203-10.086-9.335a879 879 0 0 0-14.984-13.734c-3.549-3.196-7.052-6.44-10.557-9.682q-5.499-5.087-11.022-10.146l-1.494-1.37a7040 7040 0 0 0-7.334-6.709l-2.922-2.672-1.472-1.345a753 753 0 0 1-8.453-7.865q-1.944-1.833-3.887-3.664l-1.916-1.805a164 164 0 0 0-13.799-11.555L988 738z"/><path fill="#11243D" d="M20 1115h37c.07 40.7-.178 81.394-.445 122.092q-.093 14.09-.182 28.181Q56.19 1294.136 56 1323c-11.384 3.795-24.006.363-36 0z"/><path fill="#4A9BC3" d="m1043.749 197.86 2.96-.018 3.245-.003 3.42-.015q5.616-.021 11.231-.027l7.8-.017q7.138-.015 14.276-.019 10.49-.007 20.977-.05c6.065-.025 12.13-.033 18.195-.035q3.863-.004 7.725-.024c3.607-.017 7.214-.015 10.821-.008l3.214-.028c7.568.042 12.81 1.452 19.512 5.071 3.677 2.958 6.363 6.328 8.875 10.313 1.561 4.684 1.55 9.111 1 14-1.424 4.657-3.431 8.444-6.902 11.887-3.843 3.046-7.367 4.75-12.098 6.113-3.112.246-3.112.246-6.492.24l-3.9.009-4.242-.022h-4.495c-4.058.002-8.115-.01-12.173-.024-4.244-.013-8.488-.014-12.732-.016q-12.048-.011-24.096-.043c-9.147-.022-18.293-.033-27.44-.043q-28.215-.032-56.43-.101c1.369-3.502 2.874-6.678 4.793-9.914l1.65-2.79 1.745-2.921 1.785-2.995q1.74-2.91 3.487-5.816a978 978 0 0 0 3.673-6.173c3.556-5.856 7.518-11.042 12.867-15.391 2.896-.965 4.737-1.13 7.749-1.14"/><path fill="#FEFEFE" d="M587.21 1205.492c7.004 3.786 12.317 8.23 16.509 15.043 5.161 9.93 6.594 19.414 6.496 30.512-.528 9.705-3.022 18.704-8.215 26.953-4.517 6.458-9.93 10.577-17 14-7.774 3.394-15.612 3.804-24 3-8.98-1.734-16.879-5.237-24-11-6.26-6.272-10.218-14.059-12.75-22.5-2.206-9.56-1.925-19.038.703-28.473 2.233-6.457 4.996-12.598 9.422-17.84L537 1213l1.633-1.703c4.89-4.87 9.71-6.813 16.34-8.582 11.245-2.655 21.664-2.105 32.238 2.777"/><path fill="#629E51" d="M1343 1172c-.572 4.418-1.69 7.961-3.562 11.996l-1.64 3.573-.885 1.903c-1.596 3.435-3.165 6.882-4.737 10.329l-1.016 2.223c-4.095 8.988-8.035 18.043-11.973 27.101l-1.103 2.535c-4.42 10.161-8.838 20.325-13.134 30.54-1.965 4.637-4.062 9.206-6.204 13.765-3.634 7.74-7.124 15.54-10.573 23.363q-1.5 3.397-3.007 6.791l-1.936 4.385-.896 2.017c-1.67 3.802-3.014 7.52-4.334 11.479h-22l-6.877-16.045a9499 9499 0 0 1-7.58-17.715l-2.386-5.589q-1.488-3.484-2.97-6.97a674 674 0 0 0-8.62-19.299c-2.858-6.17-5.646-12.371-8.442-18.57l-.93-2.06c-3.81-8.44-7.603-16.89-11.35-25.36-3.067-6.92-6.204-13.81-9.346-20.697q-1.182-2.593-2.36-5.188-1.157-2.547-2.325-5.089l-1.11-2.445c-.33-.718-.658-1.436-.996-2.176C1190 1175 1190 1175 1190 1173h22l3.438 7.75a2043 2043 0 0 0 6.816 15.23c4.112 9.071 8.108 18.174 11.937 27.367 2.288 5.473 4.73 10.854 7.25 16.223 1.924 4.232 3.71 8.514 5.496 12.805 2.411 5.785 4.884 11.521 7.563 17.188a1055 1055 0 0 1 7.938 17.187l1.074 2.35c2.488 5.553 2.488 5.553 2.488 8.9h2l.509-1.64c1.853-5.779 4.128-11.233 6.678-16.735a611 611 0 0 0 9-20.625 242 242 0 0 1 8.461-18.21c1.398-2.886 2.547-5.786 3.665-8.79 3.03-8.102 6.638-15.917 10.226-23.783 1.718-3.782 3.42-7.571 5.121-11.362l2.882-6.41 1.913-4.263q1.348-3.005 2.701-6.006l1.588-3.534C1322 1174 1322 1174 1323 1173c6.672-1.133 13.246-1.101 20-1"/><path fill="#FEFEFE" d="M1078 1199v2l1.8.008c6.412.299 11.087 1.925 16.595 5.203 7.044 4.837 11.385 10.474 15.378 17.98 3.714 8.504 3.787 16.712 3.227 25.809-1.194 7.987-5.1 14.672-10 21-5.586 5.892-11.518 10.297-19.125 13.188-9.69 2.031-19.294 2.625-28.875-.188-7.77-3.067-14.725-6.666-20.39-12.973-4.88-6.146-8.27-12.211-9.61-20.027-.747-8.803-.485-16.93 2.719-25.293 1.978-4.18 4.206-8.228 7.281-11.707h2l1-3h2v-2c6.237-4.909 13.72-8.043 21.445-9.66 4.836-.643 9.688-.488 14.555-.34"/><path fill="#11243D" d="M703 1172h37c.911 3.644 1.123 6.345 1.12 10.062l.004 3.764-.01 4.122v4.347q-.001 5.897-.013 11.794c-.006 4.11-.006 8.219-.008 12.328q-.005 11.671-.021 23.342-.015 13.288-.022 26.576-.016 27.332-.05 54.665h-38z"/><path fill="#6CA556" d="m1468 1112 21 1q.231 40.823.443 81.647.098 18.954.205 37.908.095 16.515.177 33.029.043 8.75.096 17.499.049 8.226.086 16.453.014 3.027.035 6.054.026 4.117.04 8.235l.02 2.447c.012 5.5.012 5.5-1.102 7.728h-21zM1554 1114h21q.035 40.85.052 81.699.007 18.966.023 37.931.015 16.524.02 33.048 0 8.756.01 17.51.01 8.23.008 16.461 0 3.03.006 6.06.007 4.119.001 8.236l.01 2.456a167 167 0 0 1-.13 5.599l-1 1h-20z"/><path fill="#FEFEFE" d="M1719.828 1192.996a47.83 47.83 0 0 1 18.992 15.527c1.5 2.45 2.863 4.926 4.18 7.477l1.18 2.094c3.251 5.98 4.917 12.146 4.945 18.968L1749 1240c-2.289 1.144-3.556 1.126-6.1 1.127l-2.6.009-2.859-.007-3.005.006q-4.937.004-9.873-.002-3.42 0-6.838.003-7.172.002-14.345-.006-9.21-.006-18.422.004-7.062.004-14.124 0-3.396 0-6.794.002-4.74.003-9.481-.007l-2.86.007-2.6-.009-2.266-.001C1645 1241 1645 1241 1643 1240c.373-8.595 2.135-16.244 6.61-23.672A146 146 0 0 1 1655 1209l1.434-1.934c4.845-6.162 10.922-10.509 18.113-13.582 15.357-5.637 29.67-5.987 45.281-.488"/><path fill="#337BB0" d="m1242.34 196.602 2.322-.01q2.415-.002 4.828.017c2.438.016 4.875 0 7.313-.02 15.531-.022 15.531-.022 22.197 3.411 4.871 2.924 8.239 6.88 11 11.813 1.941 4.328 2.633 8.011 2.352 12.742-.823 5.72-2.383 10.563-5.915 15.195-3.997 4.039-7.986 6.55-13.437 8.25-5.607.779-11.274.679-16.923.597-2.638-.034-5.273-.02-7.911-.001-15.147-.014-15.147-.014-21.557-3.521L1225 244l-1.707-1.085c-3.767-2.734-5.633-5.93-7.531-10.048-2.4-5.883-2.276-11.59-1.762-17.867 1.051-4.09 2.94-6.838 5.766-9.934 6.66-6.306 13.572-8.54 22.574-8.464"/><path fill="#88BB65" d="M1348.703 532.348c4.931 3.547 8.134 8.225 10.735 13.652 1.07 5.711 1.07 10.939-.5 16.563-1.548 4.097-3.765 7.25-6.536 10.613-3.915 2.973-7.605 4.668-12.402 5.824-5.498.605-11.027.535-16.55.467-2.577-.03-5.15-.021-7.727-.008q-2.49-.01-4.98-.025l-2.3.008c-5.41-.094-9.473-1.28-14.443-3.442-3.83-2.415-6.926-5.304-9.355-9.14-2.45-5.06-3.87-10.218-3.645-15.86.692-4.262 2.064-7.67 4.55-11.203 3.396-4.066 6.848-7.182 11.45-9.797 4.988-1.663 10.212-1.39 15.44-1.558 2.025-.066 4.05-.144 6.076-.223 21.365-.718 21.365-.718 30.187 4.129"/><path fill="#337BB0" d="M1280.62 282.533c2.44.03 4.879.021 7.32.008q2.36.01 4.72.025l2.176-.008c6.488.119 11.56 2.036 17.289 5.13 4.744 3.816 7.928 8.088 10.312 13.687.995 6.411.326 12.246-2 18.312-1.983 4.017-4.548 6.82-7.851 9.805-7.126 4.155-14.479 4.864-22.594 4.922a615 615 0 0 1-4.351-.023c-2.203-.016-4.405 0-6.608.02-8.588.013-15.836-.645-23.521-4.735-4.204-3.142-6.7-6.021-8.82-10.844-2.133-5.65-2.226-10.838-1.692-16.832 1.516-5.426 4.89-9.354 8.73-13.36 8.453-6.11 16.788-6.238 26.89-6.107"/><path fill="#88BB65" d="m1194.64 528.797 2.55-.017q2.667-.014 5.335-.02c2.702-.01 5.402-.04 8.104-.072q2.6-.01 5.2-.016l2.421-.038c5.562.022 9.65 1.126 14.75 3.366 3.973 2.487 6.976 5.603 9.375 9.625 2.268 4.71 2.97 8.672 2.91 13.867-.644 5.665-3.075 10.653-6.16 15.383-3.082 3.082-5.932 5.478-10.187 6.733-6.998 1.476-13.741 1.658-20.876 1.58l-3.341-.002c-20.128-.107-20.128-.107-27.01-4.026-5.133-3.48-7.993-7.725-10.711-13.16-1.492-4.85-1.654-10.096-.54-15.047 1.722-5.223 4.49-9.243 8.54-12.953 6.393-4.566 11.971-5.163 19.64-5.203"/><path fill="#629E51" d="M1384 1172q4.968-.042 9.938-.062l2.865-.026 2.724-.01 2.524-.016 1.949.114 1 1c.101 1.919.13 3.842.134 5.763l.013 3.795-.002 4.202.01 4.394q.014 5.985.012 11.969.003 4.987.008 9.976.012 11.763.01 23.526.001 12.153.026 24.306.019 10.417.018 20.836-.002 6.228.013 12.458.014 5.857.003 11.713-.003 2.154.007 4.308c.008 1.955.002 3.91-.005 5.864l.002 3.32-.249 2.57-2 2c-1.848.243-1.848.243-4.062.23l-2.415-.005-2.523-.037-2.523-.002c-6.196-.046-6.196-.046-8.477-1.186q-.035-29.089-.052-58.178-.007-13.506-.023-27.011-.015-11.769-.02-23.537 0-6.234-.01-12.468-.01-5.863-.008-11.726 0-2.157-.006-4.313-.006-2.934-.001-5.87l-.003-3.324C1383 1174 1383 1174 1384 1172"/><path fill="#337BB0" d="M769 460c4.698.829 8.999 2.352 13.477 3.965 8.992 2.642 17.62 3.332 26.96 3.223l3.159-.002c6.321-.036 12.464-.43 18.732-1.267 2.672.081 2.672.081 5.28 1.52L839 469c3.695.72 3.695.72 7 1-1.525 5.143-3.742 9.662-6.25 14.375l-1.306 2.468C829.864 502.873 820.419 518.45 811 534c-4.107-1.424-7.129-3.414-10.562-6.062l-3.157-2.415-1.629-1.254c-2.722-2.09-5.469-4.148-8.215-6.207l-2.94-2.214A136 136 0 0 0 779 512c-.55-3.004-.937-5.907-1.25-8.937-1.24-10.322-3.66-20.16-6.413-30.174l-.911-3.33-.831-2.96C769 464 769 464 769 460"/><path fill="#FEFEFE" d="M163.176 1257.77h2.679q2.8.006 5.6.024c2.837.018 5.674.02 8.512.02q2.73.008 5.459.018l2.545.003c5.09.04 9.998.363 15.029 1.165l1 1c.377 7.798-.08 15.4-3.117 22.676-3.09 5.752-6.805 9.411-12.29 12.922-8.606 4.653-17.338 5.714-27.015 5.613-5.76-.34-10.668-1.411-15.605-4.465-3.749-2.908-6.397-6.197-8.313-10.543-1.238-4.134-1.31-7.953-.66-12.203.872-3.075 2.049-5.467 4-8 6.871-6.455 12.937-8.309 22.176-8.23"/><path fill="#629E51" d="M988 736c20.584.499 38.673 9.752 56 20q3.257 2.019 6.5 4.063c14.828 9.166 30.018 16.083 47.5 17.937l1 3h-2l-1 4h-2l-.312 2.313C1093 790 1093 790 1091.824 791.57c-2.447 1.919-4.671 2.332-7.699 2.992-3.03.672-5.817 1.307-8.676 2.52-2.757 1.033-4.83 1.121-7.762 1.043l-2.675-.055L1063 798v2h-2l-1 3c-6.627-5.924-13.182-11.921-19.707-17.957-3.11-2.877-6.231-5.743-9.355-8.606l-1.495-1.369a7040 7040 0 0 0-7.334-6.709l-2.922-2.672-1.472-1.345a753 753 0 0 1-8.453-7.865q-1.944-1.833-3.887-3.664l-1.916-1.805a164 164 0 0 0-13.799-11.555L988 738z"/><path fill="#88BB65" d="M1095 833c4.64-.096 8.91.192 13.473 1.023l3.695.654 3.895.698c11.2 1.963 22.345 3.42 33.69 4.266 6.3.495 6.3.495 9.247 1.359 1.622 3.243 1.613 6.849 1.973 10.418l.264 2.574q.277 2.712.547 5.425c.273 2.715.558 5.43.843 8.144 1.042 10.191 1.647 20.191 1.373 30.439-3.944-1.836-6.808-4.403-9.937-7.375l-3.512-3.29-1.799-1.691a825 825 0 0 0-6.443-5.962c-6.332-5.815-12.598-11.699-18.849-17.6-3.527-3.33-7.064-6.648-10.632-9.934-13.83-12.75-13.83-12.75-17.828-18.148zM1276 699c4.796 2.25 8.697 5.24 11.938 9.438 2.151 3.402 3.373 6.564 4.062 10.562-.01 5.876-1.277 10.756-4 16-2.776 4.116-5.581 6.712-10 9-4.951 1.46-9.679 2.337-14.824 1.59-3.75-1.026-6.76-2.328-10.051-4.403-3.224-3.318-5.462-6.73-7.375-10.937-1.345-5.83-1.374-11.122.313-16.875 3.137-5.465 6.671-9.97 12.062-13.312 6.111-2.259 11.498-2.588 17.875-1.063"/><path fill="#337BB0" d="M772 544h2c1.373 1.757 1.373 1.757 2.934 4.2l1.716 2.665 1.788 2.822c.585.913 1.171 1.825 1.775 2.764A795 795 0 0 1 787 564l1.754 2.491C790 569 790 569 789.894 571.43c-1.091 3.137-2.542 5.817-4.21 8.691l-1.015 1.761c-1.07 1.856-2.15 3.706-3.231 5.556q-1.05 1.81-2.096 3.623a1342 1342 0 0 1-3.15 5.428 423 423 0 0 0-5.399 9.508l-1.084 1.956c-.994 1.796-1.979 3.597-2.963 5.399L765 616l-3 1-1.18-2.238C755.101 604.392 748.136 595.39 738 589c1.038-2.577 2-4 4.102-5.86l2.523-1.89c11.146-8.708 18.361-18.47 24.375-31.25z"/><path fill="#10233C" d="M726 1103c4.282.917 7.949 2.403 11.75 4.563 3.433 3.719 5.575 7.666 7.25 12.437.774 4.368.509 8.148-.664 12.418-1.595 4.14-3.513 7.068-6.836 10.02-2.378 1.897-4.648 3.484-7.5 4.562a90 90 0 0 1-7.875.313l-2.105.048c-3.52.004-6.093-.391-9.36-1.732-4-2.45-6.773-5.33-9.41-9.191-2.281-4.449-2.662-8.758-2.582-13.711.596-4.893 2.388-8.796 5.332-12.727 6.879-5.94 13.039-7.726 22-7"/><path fill="#6CA556" d="M922 574c4.715 1.452 8.522 3.43 11.922 7.043 1.952 2.552 3.641 5.084 5.078 7.957.504 5.83.933 11.93-1.5 17.375-2.64 4.404-6.272 7.756-10.5 10.625-4.75 1.917-8.906 2.518-14 2-4.364-1.16-8.298-2.658-11.867-5.473-3.605-3.793-5.451-7.936-6.719-12.984-.669-4.109-.676-7.554.586-11.543 2.262-4.423 4.967-8.018 8.563-11.437 5.968-3.827 11.48-4.449 18.437-3.563"/><path fill="#337BB0" d="M1172.113 367.727c3.531.334 6.047 1.168 9.102 2.937 3.88 2.904 6.795 6.316 8.926 10.664 1.649 5.127 1.367 10.357.859 15.672-1.072 3.968-2.839 6.743-5.613 9.746-2.555 2.362-5.023 4.072-8.137 5.629-5.536 1.065-11.092 1.564-16.562-.062-3.441-1.564-6.051-3.425-8.563-6.25-3.151-4.542-4.531-8.412-5.082-13.961-.096-4.685 1.065-8.384 3.184-12.465 2.373-3.877 4.545-6.845 8.523-9.137l3.25-1.5c3.245-1.623 6.534-1.32 10.113-1.273"/><path fill="#FEFEFE" d="M511 275c4.045 1.569 6.455 4.448 9.25 7.625 3.562 3.998 7.19 7.843 11.094 11.512l2.214 2.105q2.157 2.038 4.36 4.024c1.924 1.834 3.586 3.537 5.082 5.734 1.134 4.725-.095 9.658-1.187 14.313l-.668 3.05C540 326 540 326 537.598 327.832 535 329 535 329 531.625 329.375c-4.222-.437-6.919-1.286-10.625-3.375-4.905-4.648-7.953-10.202-10.937-16.187q-1.288-2.521-2.583-5.04l-1.264-2.461c-2.184-4.15-4.598-8.154-7.036-12.16C498 288 498 288 498 286c1.574-1.586 1.574-1.586 3.688-3.375l2.199-1.871A310 310 0 0 1 511 275"/><path fill="#6CA556" d="M1113 532c5.878 1.315 9.885 4.22 14.336 8.184 1.744 1.903 2.741 3.409 3.664 5.816.588 4.079.622 8.13-.687 12.066-1.66 3.201-3.536 5.107-6.376 7.309-3.492 1.932-6.181 2.791-10.124 2.875-4.797-.093-8.631-.849-12.813-3.25-8.002-5.943-8.002-5.943-10.234-10.543-1.048-3.363-1.135-5.95-.766-9.457 2.306-4.355 4.926-7.252 9-10 4.887-2.534 8.504-3.579 14-3"/><path fill="#629E51" d="M1397 1109c3.377.99 5.898 2.025 8.55 4.371 1.56 1.833 2.536 3.397 3.45 5.629.757 4.513.742 8.749-.7 13.121-1.514 2.971-3.496 5.061-5.925 7.316-3.927 1.819-6.764 2.073-11.043 1.887-2.332-.324-2.332-.324-5.207-1.574-5.63-4.637-5.63-4.637-7.375-8.562-.848-3.603-1.08-6.496-.75-10.188 1.36-3.779 3.007-6.214 6-8.812 4.443-3.24 7.58-3.55 13-3.188"/><path fill="#FEFEFE" d="M739.125 259.438c2.94.2 4.931.584 7.688 1.687 3.3 2.83 6.225 5.951 8.187 9.875.47 3.782.577 7.436-.754 11.043-1.45 2.667-3.064 4.792-5.308 6.832-3.017 1.752-5.246 2.145-8.75 2.375-2.882-.053-4.585-.39-7.375-1.375-3.307-2.204-5.76-4.493-7.813-7.875-1.274-2.688-1.955-5.016-2-8 .994-3.887 2.987-6.744 5.48-9.836 3.32-3.359 5.9-4.564 10.645-4.726M596.715 560.105c3.84 1.504 6.579 3.82 9.285 6.895 1.5 2.375 1.5 2.375 2 5-.143 4.43-.687 7.853-2.687 11.813-2.313 3.187-2.313 3.187-5 5.125-4.242 1.36-7.902 1.79-12.313 1.062-3.5-1.88-6.417-3.985-9-7-1.224-3.273-1.783-6.516-2-10 1.162-4.17 2.594-6.519 5.375-9.812 4.958-4.132 8.178-4.677 14.34-3.083M741 186h2q1.13 5.99 2.191 11.993.364 2.031.748 4.058c2.56 13.558 2.302 26.17-1.376 39.574l-.659 2.559c-1.064 4.058-2.214 7.965-3.904 11.816-2-2-2-2-3.035-5.676a340 340 0 0 1-1.028-4.637l-.53-2.461c-4.233-20.426.447-37.428 5.593-57.226M737 295h3c2.002 7.328 3.625 14.403 4 22l.16 2.984c.402 14.34-3.69 27.57-8.16 41.016h-2c-4.074-22.598-4.37-41.882 2-64z"/><path fill="#F8FAFB" d="M680 585v2c-21.048 2.562-40.586 3.628-60.5-4.687A442 442 0 0 1 612 579v-2c24.035-5.373 45.227.426 68 8"/><path fill="#FEFEFE" d="M593 488h2q.722 3.53 1.438 7.063l.408 1.99c4.132 20.459 1.723 37.951-3.846 57.947h-2q-.974-4.03-1.937-8.062l-.553-2.28c-4.552-19.116-1.392-36.345 3.974-54.955zM592 594h2c4.536 21.627 4.631 42.73-2 64a86 86 0 0 1-2 4l-2-2c-4.46-18.923-4.552-38.172.377-56.98.965-3.13 2.254-6.046 3.623-9.02"/><path fill="#FBFCFD" d="M811.535 282.294c4.135 1.184 8.318 2.131 12.516 3.065L826 286l1 2c-14.542 3.612-32.24 4.165-46.813.375A155 155 0 0 1 773 286l-2.09-.73a291 291 0 0 1-6.348-2.332l-1.958-.743c-1.788-.73-1.788-.73-4.604-2.195l-1-3c19.467-1.375 35.756-.249 54.535 5.294"/><path fill="#FCFDFD" d="M570.008 569.047 572 570v2c-23.431 3.408-42.722.482-65-7v-2c22.097-3.133 42.29-3.273 63.008 6.047"/><path fill="#FEFEFE" d="M721 271v2c-20.658 2.61-40.653 1.869-60.194-5.869A211 211 0 0 1 656 265v-2c23.179-3.012 43.64-1.384 65 8"/><path fill="#629E51" d="m771 700 3 1c1.605 1.848 1.605 1.848 3.188 4.063l1.605 2.222L780 709h-2l-1 2-4-1z"/><path fill="#8AC1CB" d="m971 162 1.745.457c2.108.508 4.189.89 6.33 1.227l2.27.373q2.36.382 4.72.75c1.99.332 3.965.755 5.935 1.193l1 2c-6.998.344-13.464-.285-20-3z"/><path fill="#366D3A" d="m753 739 3 1c.95 2.504.95 2.504 1.688 5.563l.761 3.066L759 751h-2c-2.043-2.043-2.961-3.328-4-6-.125-3.25-.125-3.25 0-6"/><path fill="#337BB0" d="m476 384 1 2 3 1-2 2c-2.625.125-2.625.125-5 0 1.875-3.875 1.875-3.875 3-5"/></svg>